<svg xmlns="http://www.w3.org/2000/svg" width="114" height="113" viewBox="0 0 114 113" fill="none">
  <path d="M51.9149 0H0V51.2818H51.9149V0Z" fill="#F39800"/>
  <path d="M44.9509 5.69922H6.96436V43.6857H44.9509V5.69922Z" fill="#F7F8F8"/>
  <path d="M38.6195 13.2891H13.2952V37.9803H38.6195V13.2891Z" fill="#F39800"/>
  <path d="M113.83 0H61.9148V51.2818H113.83V0Z" fill="#F39800"/>
  <path d="M106.866 5.69922H68.8792V43.6857H106.866V5.69922Z" fill="#F7F8F8"/>
  <path d="M100.534 13.2891H75.21V37.9803H100.534V13.2891Z" fill="#F39800"/>
  <path d="M51.9149 61.0859H0V112.368H51.9149V61.0859Z" fill="#F39800"/>
  <path d="M44.9509 66.7852H6.96436V104.772H44.9509V66.7852Z" fill="#F7F8F8"/>
  <path d="M38.6195 74.375H13.2952V99.0662H38.6195V74.375Z" fill="#F39800"/>
  <path d="M113.915 61.0859H62V112.368H113.915V61.0859Z" fill="#F39800"/>
  <path d="M106.951 66.7852H68.9644V104.772H106.951V66.7852Z" fill="white"/>
</svg>