<svg xmlns="http://www.w3.org/2000/svg" width="146" height="14" viewBox="0 0 146 14" fill="none">
  <g clip-path="url(#clip0_2083_634)">
    <path d="M2.81295 0.3125L9.89445 0.3125C10.9693 0.3125 11.8076 0.562231 12.4126 1.0647C13.0176 1.56717 13.3185 2.26221 13.3185 3.14981C13.3185 3.30025 13.3062 3.46874 13.2847 3.65228C13.2632 3.83582 13.2325 4.01334 13.1957 4.18183C12.9623 5.30713 12.3788 6.17367 11.4453 6.78445C11.1566 6.971 10.8341 7.13649 10.4841 7.27489C10.6192 7.32905 10.739 7.39223 10.8464 7.46445C11.5251 7.91878 11.7646 8.68001 11.5681 9.74813L11.1781 11.9145C11.0982 12.3508 11.0798 12.6577 11.1228 12.8382C11.1658 13.0187 11.2886 13.1631 11.4944 13.2745L11.4207 13.6295H8.28223C8.22695 13.467 8.21467 13.1571 8.24845 12.6998C8.28223 12.2424 8.34979 11.764 8.44806 11.2616L8.69373 10.046C8.80428 9.43522 8.71523 8.99894 8.42963 8.74018C8.14404 8.48142 7.59742 8.34904 6.79284 8.34904L3.93997 8.34904H3.94918L2.83444 13.6355H0L2.81295 0.3125ZM4.41596 6.14358H7.92293C8.62003 6.14358 9.16358 6.00818 9.55051 5.73438C9.93745 5.46058 10.1954 5.04235 10.3182 4.47369C10.3428 4.35333 10.3612 4.24201 10.3735 4.14272C10.3858 4.04343 10.3919 3.94414 10.3919 3.84785C10.3919 3.39954 10.2384 3.07459 9.9313 2.873C9.62421 2.67141 9.1298 2.56911 8.45113 2.56911L5.1714 2.56911L4.41596 6.14057V6.14358Z" fill="#3E3A39" fill-opacity="0.5"/>
    <path d="M13.687 13.6415L16.503 0.3125L26.5449 0.3125L26.3146 1.50098L26.0843 2.68946L18.84 2.68946L18.2473 5.45456L24.9388 5.45456L24.6901 6.64304L24.4413 7.83152L17.7498 7.83152L17.0343 11.2676L24.5918 11.2676L24.3246 12.4561L24.0575 13.6445L13.7024 13.6445L13.687 13.6415Z" fill="#3E3A39" fill-opacity="0.5"/>
    <path d="M33.0491 0.3125L36.3257 0.3125L38.2328 13.6415H35.1311L34.824 10.8494L29.7878 10.8494L28.2738 13.6415H25.2674L33.0491 0.3125ZM31.0192 8.64691H34.5907L33.9765 3.25211H33.9857L31.0161 8.64691H31.0192Z" fill="#3E3A39" fill-opacity="0.5"/>
    <path d="M42.833 0.3125L47.7004 0.3125C49.5214 0.3125 50.9003 0.688601 51.8369 1.4378C52.7735 2.18699 53.2434 3.29122 53.2434 4.74749C53.2372 5.04837 53.2157 5.37031 53.1789 5.7073C53.142 6.04429 53.0867 6.3903 53.013 6.74233C52.4818 9.22761 51.6219 10.9968 50.4304 12.0559C49.2389 13.115 47.5069 13.6415 45.2283 13.6415H40.017L42.833 0.3125ZM43.3213 11.4301L45.6951 11.4301C46.9326 11.4301 47.8785 11.1292 48.5295 10.5244C49.1805 9.91963 49.6596 8.91168 49.9606 7.49453C50.0465 7.07631 50.111 6.70021 50.151 6.36623C50.1909 6.02924 50.2124 5.7073 50.2216 5.4004C50.2154 4.42855 49.9698 3.71246 49.4876 3.25512C49.0055 2.79778 48.2501 2.56911 47.2213 2.56911L45.1914 2.56911L43.3213 11.427V11.4301Z" fill="#3E3A39" fill-opacity="0.5"/>
    <path d="M58.298 8.60178L55.4482 0.3125L58.7986 0.3125L60.3463 6.05933V6.07137L64.2771 0.3125L67.4831 0.3125L61.1356 8.59275L60.07 13.6445H57.2355L58.3011 8.60178H58.298Z" fill="#3E3A39" fill-opacity="0.5"/>
    <path d="M73.5451 12.7023C72.6054 11.8388 72.1325 10.6383 72.1325 9.10377C72.1325 8.80289 72.154 8.46891 72.1939 8.10484C72.2338 7.74077 72.2922 7.38874 72.3659 7.04273C72.8234 4.88541 73.7723 3.17039 75.2157 1.90067C76.659 0.630953 78.3879 -0.00390625 80.3994 -0.00390625C82.0576 -0.00390625 83.3566 0.432371 84.2963 1.30493C85.236 2.17748 85.7028 3.39003 85.7028 4.93656C85.6967 5.23744 85.6721 5.57443 85.6322 5.94752C85.5923 6.32062 85.5339 6.68468 85.4602 7.03972C85.0088 9.17297 84.0599 10.8669 82.6104 12.1186C81.1732 13.3703 79.4504 13.9961 77.4451 13.9961C75.7869 13.9961 74.4848 13.5628 73.5451 12.6993V12.7023ZM80.8692 10.4186C81.7014 9.58518 82.2695 8.45687 82.5736 7.03671C82.6288 6.77194 82.6718 6.49513 82.7025 6.2123C82.7332 5.92947 82.7517 5.6677 82.7578 5.43302C82.7578 4.46117 82.506 3.69994 82.0024 3.15234C81.4987 2.60473 80.8016 2.33093 79.908 2.33093C78.7841 2.33093 77.8044 2.75517 76.9692 3.60065C76.1339 4.44613 75.5627 5.59248 75.2617 7.03671C75.2065 7.30751 75.1604 7.58432 75.1266 7.86113C75.0928 8.13794 75.0744 8.38767 75.0744 8.6043C75.0744 9.56411 75.3293 10.3163 75.8329 10.8579C76.3396 11.3995 77.0398 11.6703 77.9365 11.6703C79.0574 11.6703 80.0339 11.2521 80.8661 10.4186H80.8692Z" fill="#3E3A39" fill-opacity="0.5"/>
    <path d="M89.1085 0.334143L96.19 0.334143C97.2648 0.334143 98.1031 0.583874 98.7081 1.08635C99.3131 1.58882 99.614 2.28385 99.614 3.17145C99.614 3.32189 99.6017 3.49039 99.5802 3.67392C99.5587 3.85746 99.528 4.03498 99.4912 4.20347C99.2578 5.32877 98.6743 6.19531 97.7408 6.8061C97.4521 6.99264 97.1296 7.15813 96.7796 7.29653C96.9147 7.35069 97.0344 7.41388 97.1419 7.48609C97.8206 7.94042 98.0601 8.70165 97.8636 9.76978L97.4736 11.9361C97.3937 12.3724 97.3753 12.6793 97.4183 12.8598C97.4613 13.0404 97.5841 13.1848 97.7899 13.2961L97.7162 13.6511H94.5777C94.5225 13.4887 94.5102 13.1788 94.5439 12.7214C94.5777 12.2641 94.6453 11.7857 94.7436 11.2832L94.9892 10.0676C95.0998 9.45686 95.0107 9.02058 94.7251 8.76182C94.4395 8.50307 93.8929 8.37068 93.0883 8.37068L90.2355 8.37068H90.2447L89.1299 13.6572H86.2955L89.1085 0.328125V0.334143ZM90.7115 6.16522H94.2184C94.9155 6.16522 95.4591 6.02982 95.846 5.75602C96.2329 5.48222 96.4909 5.06399 96.6137 4.49533C96.6383 4.37498 96.6567 4.26365 96.669 4.16436C96.6813 4.06507 96.6874 3.96578 96.6874 3.8695C96.6874 3.42118 96.5339 3.09623 96.2268 2.89464C95.9197 2.69305 95.4253 2.59075 94.7466 2.59075L91.4669 2.59075L90.7115 6.16221V6.16522Z" fill="#3E3A39" fill-opacity="0.5"/>
    <path d="M102.795 0.335938L107.663 0.335938C109.484 0.335938 110.863 0.712039 111.799 1.46123C112.736 2.21043 113.206 3.31466 113.206 4.77093C113.2 5.07181 113.178 5.39375 113.141 5.73074C113.104 6.06772 113.049 6.41374 112.975 6.76577C112.444 9.25105 111.584 11.0202 110.393 12.0793C109.201 13.1384 107.469 13.665 105.191 13.665H99.9794L102.792 0.335938H102.795ZM103.284 11.4535L105.658 11.4535C106.895 11.4535 107.841 11.1526 108.492 10.5478C109.143 9.94307 109.622 8.93512 109.923 7.51797C110.009 7.09975 110.073 6.72364 110.113 6.38967C110.153 6.05268 110.175 5.73074 110.184 5.42384C110.178 4.45199 109.932 3.73589 109.45 3.27856C108.968 2.82122 108.213 2.59255 107.184 2.59255L105.154 2.59255L103.284 11.4505V11.4535Z" fill="#3E3A39" fill-opacity="0.5"/>
    <path d="M113.673 13.665L116.486 0.335938L126.527 0.335938L126.297 1.52442L126.067 2.7129L118.823 2.7129L118.23 5.478L124.921 5.478L124.673 6.66648L124.424 7.85496L117.732 7.85496L117.017 11.291L124.574 11.291L124.307 12.4795L124.04 13.668L113.685 13.668L113.673 13.665Z" fill="#3E3A39" fill-opacity="0.5"/>
    <path d="M129.128 0.334143L136.21 0.334143C137.285 0.334143 138.123 0.583874 138.728 1.08635C139.333 1.58882 139.634 2.28385 139.634 3.17145C139.634 3.32189 139.622 3.49039 139.6 3.67392C139.579 3.85746 139.548 4.03498 139.511 4.20347C139.278 5.32877 138.694 6.19531 137.761 6.8061C137.472 6.99264 137.15 7.15813 136.8 7.29653C136.935 7.35069 137.054 7.41388 137.162 7.48609C137.841 7.94042 138.08 8.70165 137.884 9.76978L137.494 11.9361C137.414 12.3724 137.395 12.6793 137.438 12.8598C137.481 13.0404 137.604 13.1848 137.81 13.2961L137.736 13.6511H134.598C134.542 13.4887 134.53 13.1788 134.564 12.7214C134.598 12.2641 134.665 11.7857 134.764 11.2832L135.009 10.0676C135.12 9.45686 135.031 9.02058 134.745 8.76182C134.46 8.50307 133.913 8.37068 133.108 8.37068L130.255 8.37068H130.265L129.15 13.6572H126.315L129.128 0.328125V0.334143ZM130.731 6.16522H134.238C134.936 6.16522 135.479 6.02982 135.866 5.75602C136.253 5.48523 136.511 5.06399 136.634 4.49533C136.658 4.37498 136.677 4.26365 136.689 4.16436C136.701 4.06507 136.707 3.96578 136.707 3.8695C136.707 3.42118 136.554 3.09623 136.247 2.89464C135.94 2.69305 135.445 2.59075 134.77 2.59075L131.49 2.59075L130.735 6.16221L130.731 6.16522Z" fill="#3E3A39" fill-opacity="0.5"/>
    <path d="M141.808 10.0077L142.401 3.61396L143.086 0.394531L146 0.394531L145.315 3.61396L143.205 10.0077H141.808Z" fill="#F39800" fill-opacity="0.5"/>
    <path d="M143.685 11.0195H140.964V13.6853H143.685V11.0195Z" fill="#F39800" fill-opacity="0.5"/>
    <path d="M143.325 11.332H141.317V13.2998H143.325V11.332Z" fill="#F7F8F8" fill-opacity="0.5"/>
    <path d="M142.981 11.7109H141.67V12.9957H142.981V11.7109Z" fill="#F39800" fill-opacity="0.5"/>
  </g>
  <defs>
    <clipPath id="clip0_2083_634">
      <rect width="146" height="14" fill="white"/>
    </clipPath>
  </defs>
</svg>