<svg xmlns="http://www.w3.org/2000/svg" width="45" height="47" viewBox="0 0 45 47" fill="none">
  <path d="M17.1237 1.85196C20.1316 -0.519429 24.3474 -0.613439 27.4476 1.56993L27.8289 1.85196L42.2503 13.3C43.8371 14.5197 44.8105 16.3318 44.9763 18.3036L45 18.776V37.8341C45 42.7461 41.0897 46.7415 36.1895 47H31.4763C29.2239 46.9553 27.4026 45.2162 27.2368 43.0304L27.2132 42.6991V35.9797C27.2132 35.2488 26.6661 34.6401 25.9342 34.5202L25.7211 34.4967H19.395C18.6395 34.5202 18.0237 35.0608 17.9289 35.7659L17.9053 35.9797V42.6779C17.9053 42.8166 17.8792 42.9811 17.8579 43.0986L17.8342 43.148L17.8082 43.3101C17.5263 45.3102 15.8684 46.8355 13.8079 46.9788L13.5 47H9.26053C4.31053 47 0.260526 43.148 0 38.3041V18.776C0.0213158 16.776 0.9 14.9193 2.36842 13.6266L17.1237 1.85196ZM25.7684 4.41372C23.9684 2.98007 21.4105 2.91192 19.5158 4.15519L19.1582 4.41372L4.75816 15.9322C3.93158 16.5409 3.43421 17.4575 3.31579 18.4211L3.28974 18.7972V37.8341C3.28974 40.9599 5.75289 43.5216 8.88158 43.7097H13.5C14.0211 43.7097 14.4711 43.3595 14.5397 42.8659L14.5895 42.4429L14.6132 42.323V35.9797C14.6132 33.465 16.5553 31.4203 19.0421 31.2299H25.7211C28.2529 31.2299 30.3134 33.1595 30.5053 35.6272V42.6991C30.5053 43.1926 30.8605 43.618 31.3342 43.7097H35.7371C38.9108 43.7097 41.4924 41.2913 41.6818 38.2101L41.7079 37.8341V18.7972C41.6818 17.7889 41.2579 16.8465 40.5237 16.1437L40.2158 15.8829L25.7684 4.41372Z" fill="#F39800"/>
</svg>