<svg width="18" height="18" viewBox="0 0 18 18" fill="none" xmlns="http://www.w3.org/2000/svg">
<circle cx="9" cy="9" r="8.5" fill="#F39800" stroke="#F39800"/>
<path fill-rule="evenodd" clip-rule="evenodd" d="M5.77719 9.27139C5.70952 7.42171 7.15122 5.866 9.00069 5.79297C10.8502 5.866 12.2919 7.42171 12.2242 9.27139C12.2242 10.0396 13.0589 10.7881 13.0834 11.5581C13.0834 11.5689 13.0834 11.5798 13.0834 11.5907C13.1015 12.084 12.7169 12.4989 12.2236 12.5182H10.3616C10.3633 12.8962 10.2209 13.2607 9.96319 13.5373C9.71545 13.8063 9.36642 13.9594 9.00069 13.9594C8.63497 13.9594 8.28593 13.8063 8.03819 13.5373C7.78053 13.2607 7.63805 12.8962 7.63978 12.5182H5.77719C5.28391 12.4989 4.89929 12.084 4.91736 11.5907C4.91736 11.5798 4.91736 11.5689 4.91736 11.5581C4.94244 10.7904 5.77719 10.0402 5.77719 9.27139Z" stroke="white" stroke-linecap="round" stroke-linejoin="round"/>
<path d="M7.63965 12.0169C7.36351 12.0169 7.13965 12.2408 7.13965 12.5169C7.13965 12.7931 7.36351 13.0169 7.63965 13.0169V12.0169ZM10.3615 13.0169C10.6376 13.0169 10.8615 12.7931 10.8615 12.5169C10.8615 12.2408 10.6376 12.0169 10.3615 12.0169V13.0169ZM9.5839 5.125C9.86004 5.125 10.0839 4.90114 10.0839 4.625C10.0839 4.34886 9.86004 4.125 9.5839 4.125V5.125ZM8.41723 4.125C8.14109 4.125 7.91723 4.34886 7.91723 4.625C7.91723 4.90114 8.14109 5.125 8.41723 5.125V4.125ZM7.63965 13.0169H10.3615V12.0169H7.63965V13.0169ZM9.5839 4.125H8.41723V5.125H9.5839V4.125Z" fill="white"/>
</svg>
