<svg xmlns="http://www.w3.org/2000/svg" width="9" height="12" viewBox="0 0 9 12" fill="none">
  <path fill-rule="evenodd" clip-rule="evenodd" d="M2.05688 9.9867L0.878882 10.5867C0.833095 10.6095 0.778744 10.6068 0.735451 10.5795C0.692158 10.5523 0.666175 10.5045 0.666882 10.4534V1.9687C0.659813 1.6243 0.933155 1.33932 1.27755 1.33203H7.38888C7.73328 1.33932 8.00662 1.6243 7.99955 1.9687V10.4534C8.00026 10.5045 7.97427 10.5523 7.93098 10.5795C7.88769 10.6068 7.83334 10.6095 7.78755 10.5867L6.60955 9.9867C6.56263 9.96275 6.50638 9.96633 6.46288 9.99603L5.51488 10.64C5.46579 10.6734 5.4013 10.6734 5.35222 10.64L4.41488 10.0034C4.36579 9.96999 4.3013 9.96999 4.25222 10.0034L3.31488 10.64C3.26579 10.6734 3.2013 10.6734 3.15222 10.64L2.20355 9.9987C2.16055 9.96813 2.10428 9.96353 2.05688 9.9867Z" stroke="#383838" stroke-linecap="round" stroke-linejoin="round"/>
  <path d="M2.33276 5.4974C2.05662 5.4974 1.83276 5.72125 1.83276 5.9974C1.83276 6.27354 2.05662 6.4974 2.33276 6.4974V5.4974ZM6.33276 6.4974C6.60891 6.4974 6.83276 6.27354 6.83276 5.9974C6.83276 5.72125 6.60891 5.4974 6.33276 5.4974V6.4974ZM2.99943 6.83073C2.72329 6.83073 2.49943 7.05459 2.49943 7.33073C2.49943 7.60687 2.72329 7.83073 2.99943 7.83073V6.83073ZM5.6661 7.83073C5.94224 7.83073 6.1661 7.60687 6.1661 7.33073C6.1661 7.05459 5.94224 6.83073 5.6661 6.83073V7.83073ZM2.99943 4.16406C2.72329 4.16406 2.49943 4.38792 2.49943 4.66406C2.49943 4.9402 2.72329 5.16406 2.99943 5.16406V4.16406ZM5.6661 5.16406C5.94224 5.16406 6.1661 4.9402 6.1661 4.66406C6.1661 4.38792 5.94224 4.16406 5.6661 4.16406V5.16406ZM2.33276 6.4974H6.33276V5.4974H2.33276V6.4974ZM2.99943 7.83073H5.6661V6.83073H2.99943V7.83073ZM2.99943 5.16406H5.6661V4.16406H2.99943V5.16406Z" fill="#383838"/>
</svg>