<svg width="34" height="34" viewBox="0 0 34 34" fill="none" xmlns="http://www.w3.org/2000/svg">
<rect x="1" y="1" width="32" height="32" rx="16" fill="white" stroke="#8C8B8B"/>
<path d="M7.87527 14.017C7.51646 14.2239 7.39337 14.6826 7.60033 15.0414C7.80728 15.4002 8.26593 15.5233 8.62473 15.3163L7.87527 14.017ZM11.1247 13.8743C11.4835 13.6674 11.6066 13.2087 11.3997 12.8499C11.1927 12.4911 10.7341 12.368 10.3753 12.575L11.1247 13.8743ZM11.5 13.2246C11.5 12.8104 11.1642 12.4746 10.75 12.4746C10.3358 12.4746 10 12.8104 10 13.2246H11.5ZM14.5 23.5833C14.9142 23.5833 15.25 23.2475 15.25 22.8333C15.25 22.4191 14.9142 22.0833 14.5 22.0833V23.5833ZM10.3752 12.575C10.0164 12.782 9.89337 13.2407 10.1004 13.5995C10.3074 13.9582 10.7661 14.0813 11.1248 13.8743L10.3752 12.575ZM15.9525 10.2228L15.6455 9.53854C15.6223 9.54894 15.5997 9.5605 15.5777 9.57319L15.9525 10.2228ZM18.0475 10.2228L18.4223 9.57319C18.4003 9.5605 18.3777 9.54894 18.3545 9.53854L18.0475 10.2228ZM22.8752 13.8743C23.2339 14.0813 23.6926 13.9582 23.8996 13.5995C24.1066 13.2407 23.9836 12.782 23.6248 12.575L22.8752 13.8743ZM13.75 22.8333C13.75 23.2475 14.0858 23.5833 14.5 23.5833C14.9142 23.5833 15.25 23.2475 15.25 22.8333H13.75ZM18.75 22.8333C18.75 23.2475 19.0858 23.5833 19.5 23.5833C19.9142 23.5833 20.25 23.2475 20.25 22.8333H18.75ZM14.5 22.0833C14.0858 22.0833 13.75 22.4191 13.75 22.8333C13.75 23.2475 14.0858 23.5833 14.5 23.5833V22.0833ZM19.5 23.5833C19.9142 23.5833 20.25 23.2475 20.25 22.8333C20.25 22.4191 19.9142 22.0833 19.5 22.0833V23.5833ZM19.5 22.0833C19.0858 22.0833 18.75 22.4191 18.75 22.8333C18.75 23.2475 19.0858 23.5833 19.5 23.5833V22.0833ZM24 13.2246C24 12.8104 23.6642 12.4746 23.25 12.4746C22.8358 12.4746 22.5 12.8104 22.5 13.2246H24ZM23.6247 12.575C23.2659 12.368 22.8073 12.4911 22.6003 12.8499C22.3934 13.2087 22.5165 13.6674 22.8753 13.8743L23.6247 12.575ZM25.3753 15.3163C25.7341 15.5233 26.1927 15.4002 26.3997 15.0414C26.6066 14.6826 26.4835 14.2239 26.1247 14.017L25.3753 15.3163ZM8.62473 15.3163L11.1247 13.8743L10.3753 12.575L7.87527 14.017L8.62473 15.3163ZM10 13.2246V21.0833H11.5V13.2246H10ZM10 21.0833C10 21.8002 10.1974 22.4989 10.807 22.9831C11.3742 23.4337 12.1622 23.5833 13.0625 23.5833V22.0833C12.2753 22.0833 11.9071 21.9414 11.7399 21.8086C11.6151 21.7094 11.5 21.5331 11.5 21.0833H10ZM13.0625 23.5833H14.5V22.0833H13.0625V23.5833ZM11.1248 13.8743L16.3273 10.8724L15.5777 9.57319L10.3752 12.575L11.1248 13.8743ZM16.2595 10.9071C16.7263 10.6976 17.2737 10.6976 17.7405 10.9071L18.3545 9.53854C17.4972 9.15382 16.5028 9.15382 15.6455 9.53854L16.2595 10.9071ZM17.6727 10.8724L22.8752 13.8743L23.6248 12.575L18.4223 9.57319L17.6727 10.8724ZM15.25 22.8333V21.6667H13.75V22.8333H15.25ZM15.25 21.6667C15.25 20.8401 15.9839 20.0833 17 20.0833V18.5833C15.2546 18.5833 13.75 19.9159 13.75 21.6667H15.25ZM17 20.0833C18.0161 20.0833 18.75 20.8401 18.75 21.6667H20.25C20.25 19.9159 18.7454 18.5833 17 18.5833V20.0833ZM18.75 21.6667V22.8333H20.25V21.6667H18.75ZM14.5 23.5833H19.5V22.0833H14.5V23.5833ZM19.5 23.5833H20.9375V22.0833H19.5V23.5833ZM20.9375 23.5833C21.8378 23.5833 22.6258 23.4337 23.193 22.9831C23.8026 22.4989 24 21.8002 24 21.0833H22.5C22.5 21.5331 22.3849 21.7094 22.2601 21.8086C22.0929 21.9414 21.7247 22.0833 20.9375 22.0833V23.5833ZM24 21.0833V13.2246H22.5V21.0833H24ZM22.8753 13.8743L25.3753 15.3163L26.1247 14.017L23.6247 12.575L22.8753 13.8743Z" fill="#8C8B8B"/>
</svg>
