<svg width="83" height="468" viewBox="0 0 83 468" fill="none" xmlns="http://www.w3.org/2000/svg">
<g filter="url(#filter0_d_2083_3399)">
<g filter="url(#filter1_d_2083_3399)">
<g filter="url(#filter2_d_2083_3399)">
<rect x="17" y="14" width="50" height="44" rx="5" fill="#1A2A4D"/>
</g>
<path d="M39.5609 29.944H41.1689V41.092H39.5609V29.944ZM35.1809 30.724C36.8609 30.724 38.0969 32.26 38.0969 34.684C38.0969 37.132 36.8609 38.668 35.1809 38.668C33.5009 38.668 32.2649 37.132 32.2649 34.684C32.2649 32.26 33.5009 30.724 35.1809 30.724ZM35.1809 32.176C34.3529 32.176 33.7889 33.052 33.7889 34.684C33.7889 36.34 34.3529 37.228 35.1809 37.228C36.0089 37.228 36.5609 36.34 36.5609 34.684C36.5609 33.052 36.0089 32.176 35.1809 32.176ZM42.992 35.176H53.048V36.448H42.992V35.176ZM47.228 33.508H48.812V35.668H47.228V33.508ZM44.204 33.004H51.908V34.264H44.204V33.004ZM44.204 30.436H51.848V31.684H45.788V33.808H44.204V30.436ZM47.984 37C50.384 37 51.836 37.732 51.836 39.04C51.836 40.348 50.384 41.08 47.984 41.08C45.584 41.08 44.12 40.348 44.12 39.04C44.12 37.732 45.584 37 47.984 37ZM47.984 38.2C46.496 38.2 45.74 38.476 45.74 39.04C45.74 39.616 46.496 39.868 47.984 39.868C49.472 39.868 50.228 39.616 50.228 39.04C50.228 38.476 49.472 38.2 47.984 38.2Z" fill="white"/>
</g>
</g>
<g filter="url(#filter3_d_2083_3399)">
<g filter="url(#filter4_d_2083_3399)">
<g filter="url(#filter5_d_2083_3399)">
<rect x="17" y="70" width="50" height="44" rx="5" fill="#1A2A4D"/>
</g>
<path d="M39.0929 85.956H40.6889V93.984H39.0929V85.956ZM40.2449 88.98H42.1649V90.288H40.2449V88.98ZM32.3609 90.888H33.2849C34.0929 90.888 34.7809 90.88 35.3489 90.864C35.9249 90.84 36.4369 90.804 36.8849 90.756C37.3409 90.708 37.7889 90.636 38.2289 90.54L38.3849 91.8C37.9369 91.904 37.4769 91.984 37.0049 92.04C36.5409 92.088 36.0129 92.124 35.4209 92.148C34.8289 92.164 34.1169 92.172 33.2849 92.172H32.3609V90.888ZM32.3609 86.832H37.3409V88.104H33.9569V91.56H32.3609V86.832ZM33.5249 95.592H41.0849V96.876H33.5249V95.592ZM33.5249 93.132H35.1329V96.24H33.5249V93.132ZM47.516 90.156H49.268V91.452H47.516V90.156ZM44.924 89.04H46.136V89.328C46.136 89.904 46.088 90.476 45.992 91.044C45.904 91.604 45.76 92.136 45.56 92.64C45.368 93.136 45.116 93.588 44.804 93.996C44.5 94.396 44.124 94.724 43.676 94.98L42.788 93.78C43.18 93.548 43.512 93.268 43.784 92.94C44.056 92.604 44.276 92.24 44.444 91.848C44.62 91.448 44.744 91.036 44.816 90.612C44.888 90.18 44.924 89.752 44.924 89.328V89.04ZM45.236 89.04H46.448V89.328C46.448 89.736 46.484 90.148 46.556 90.564C46.636 90.98 46.76 91.372 46.928 91.74C47.096 92.108 47.316 92.448 47.588 92.76C47.86 93.064 48.192 93.32 48.584 93.528L47.72 94.716C47.128 94.404 46.648 93.972 46.28 93.42C45.912 92.86 45.644 92.228 45.476 91.524C45.316 90.812 45.236 90.08 45.236 89.328V89.04ZM43.196 87.816H48.152V89.1H43.196V87.816ZM44.924 86.316H46.448V88.848H44.924V86.316ZM51.008 85.944H52.532V97.056H51.008V85.944ZM48.764 86.124H50.252V96.552H48.764V86.124Z" fill="white"/>
</g>
</g>
<g filter="url(#filter6_d_2083_3399)">
<g filter="url(#filter7_d_2083_3399)">
<g filter="url(#filter8_d_2083_3399)">
<rect x="17" y="126" width="50" height="44" rx="5" fill="#1A2A4D"/>
</g>
<path d="M31.3414 134.396H34.6294V135.68H31.3414V134.396ZM31.3414 136.868H34.6294V138.14H31.3414V136.868ZM29.4934 133.544C30.0534 133.544 30.5534 133.664 30.9934 133.904C31.4334 134.136 31.7814 134.456 32.0374 134.864C32.3014 135.272 32.4334 135.74 32.4334 136.268C32.4334 136.788 32.3014 137.252 32.0374 137.66C31.7814 138.068 31.4334 138.392 30.9934 138.632C30.5534 138.864 30.0534 138.98 29.4934 138.98C28.9494 138.98 28.4534 138.864 28.0054 138.632C27.5654 138.392 27.2134 138.068 26.9494 137.66C26.6934 137.252 26.5654 136.788 26.5654 136.268C26.5654 135.74 26.6934 135.272 26.9494 134.864C27.2134 134.456 27.5654 134.136 28.0054 133.904C28.4534 133.664 28.9494 133.544 29.4934 133.544ZM29.4934 134.888C29.2294 134.888 28.9894 134.944 28.7734 135.056C28.5574 135.16 28.3854 135.316 28.2574 135.524C28.1374 135.724 28.0774 135.972 28.0774 136.268C28.0774 136.548 28.1374 136.792 28.2574 137C28.3854 137.208 28.5574 137.368 28.7734 137.48C28.9894 137.584 29.2294 137.636 29.4934 137.636C29.7734 137.636 30.0174 137.584 30.2254 137.48C30.4414 137.368 30.6094 137.208 30.7294 137C30.8494 136.792 30.9094 136.548 30.9094 136.268C30.9094 135.972 30.8494 135.724 30.7294 135.524C30.6094 135.316 30.4414 135.16 30.2254 135.056C30.0174 134.944 29.7734 134.888 29.4934 134.888ZM34.1254 132.956H35.7334V139.46H34.1254V132.956ZM31.9654 139.688C32.7494 139.688 33.4214 139.776 33.9814 139.952C34.5494 140.12 34.9894 140.368 35.3014 140.696C35.6134 141.024 35.7694 141.416 35.7694 141.872C35.7694 142.328 35.6134 142.72 35.3014 143.048C34.9894 143.384 34.5494 143.636 33.9814 143.804C33.4214 143.98 32.7494 144.068 31.9654 144.068C31.1814 144.068 30.5054 143.98 29.9374 143.804C29.3694 143.636 28.9294 143.384 28.6174 143.048C28.3134 142.72 28.1614 142.328 28.1614 141.872C28.1614 141.416 28.3134 141.024 28.6174 140.696C28.9294 140.368 29.3694 140.12 29.9374 139.952C30.5054 139.776 31.1814 139.688 31.9654 139.688ZM31.9654 140.912C31.4854 140.912 31.0774 140.948 30.7414 141.02C30.4054 141.092 30.1534 141.2 29.9854 141.344C29.8174 141.48 29.7334 141.656 29.7334 141.872C29.7334 142.088 29.8174 142.268 29.9854 142.412C30.1534 142.556 30.4054 142.664 30.7414 142.736C31.0774 142.8 31.4854 142.832 31.9654 142.832C32.4534 142.832 32.8614 142.8 33.1894 142.736C33.5254 142.664 33.7774 142.556 33.9454 142.412C34.1134 142.268 34.1974 142.088 34.1974 141.872C34.1974 141.656 34.1134 141.48 33.9454 141.344C33.7774 141.2 33.5254 141.092 33.1894 141.02C32.8614 140.948 32.4534 140.912 31.9654 140.912ZM41.6605 133.268H43.0525V133.796C43.0525 134.22 42.9845 134.632 42.8485 135.032C42.7205 135.424 42.5285 135.792 42.2725 136.136C42.0165 136.48 41.7045 136.788 41.3365 137.06C40.9685 137.332 40.5405 137.564 40.0525 137.756C39.5725 137.94 39.0445 138.08 38.4685 138.176L37.8445 136.892C38.3565 136.828 38.8125 136.72 39.2125 136.568C39.6205 136.416 39.9765 136.236 40.2805 136.028C40.5925 135.82 40.8485 135.592 41.0485 135.344C41.2485 135.096 41.4005 134.84 41.5045 134.576C41.6085 134.312 41.6605 134.052 41.6605 133.796V133.268ZM41.9605 133.268H43.3525V133.796C43.3525 134.052 43.4045 134.312 43.5085 134.576C43.6125 134.84 43.7645 135.096 43.9645 135.344C44.1645 135.592 44.4165 135.82 44.7205 136.028C45.0325 136.236 45.3885 136.416 45.7885 136.568C46.1965 136.72 46.6565 136.828 47.1685 136.892L46.5445 138.176C45.9605 138.08 45.4285 137.94 44.9485 137.756C44.4685 137.564 44.0445 137.332 43.6765 137.06C43.3085 136.78 42.9965 136.468 42.7405 136.124C42.4845 135.78 42.2885 135.412 42.1525 135.02C42.0245 134.628 41.9605 134.22 41.9605 133.796V133.268ZM41.6605 139.988H43.2565V144.068H41.6605V139.988ZM37.4725 138.98H47.5285V140.276H37.4725V138.98ZM48.4995 138.08H58.5555V139.34H48.4995V138.08ZM53.5035 139.952C54.7035 139.952 55.6475 140.132 56.3355 140.492C57.0235 140.852 57.3675 141.356 57.3675 142.004C57.3675 142.66 57.0235 143.168 56.3355 143.528C55.6475 143.888 54.7035 144.068 53.5035 144.068C52.3035 144.068 51.3595 143.888 50.6715 143.528C49.9915 143.168 49.6515 142.66 49.6515 142.004C49.6515 141.356 49.9915 140.852 50.6715 140.492C51.3595 140.132 52.3035 139.952 53.5035 139.952ZM53.5035 141.176C53.0075 141.176 52.5915 141.208 52.2555 141.272C51.9275 141.328 51.6795 141.416 51.5115 141.536C51.3435 141.656 51.2595 141.812 51.2595 142.004C51.2595 142.196 51.3435 142.356 51.5115 142.484C51.6795 142.604 51.9275 142.692 52.2555 142.748C52.5915 142.804 53.0075 142.832 53.5035 142.832C53.9995 142.832 54.4115 142.804 54.7395 142.748C55.0755 142.692 55.3275 142.604 55.4955 142.484C55.6635 142.356 55.7475 142.196 55.7475 142.004C55.7475 141.812 55.6635 141.656 55.4955 141.536C55.3275 141.416 55.0755 141.328 54.7395 141.272C54.4115 141.208 53.9995 141.176 53.5035 141.176ZM52.4355 134.096H53.8515V134.36C53.8515 134.688 53.7915 135.008 53.6715 135.32C53.5515 135.624 53.3715 135.908 53.1315 136.172C52.8995 136.428 52.6075 136.66 52.2555 136.868C51.9035 137.068 51.4955 137.236 51.0315 137.372C50.5675 137.508 50.0515 137.604 49.4835 137.66L48.9315 136.412C49.4195 136.372 49.8515 136.304 50.2275 136.208C50.6115 136.104 50.9395 135.984 51.2115 135.848C51.4915 135.704 51.7195 135.552 51.8955 135.392C52.0795 135.232 52.2155 135.064 52.3035 134.888C52.3915 134.704 52.4355 134.528 52.4355 134.36V134.096ZM53.2155 134.096H54.6195V134.36C54.6195 134.536 54.6635 134.712 54.7515 134.888C54.8395 135.064 54.9715 135.236 55.1475 135.404C55.3315 135.564 55.5595 135.716 55.8315 135.86C56.1115 135.996 56.4395 136.112 56.8155 136.208C57.1995 136.304 57.6355 136.372 58.1235 136.412L57.5715 137.66C57.0035 137.604 56.4875 137.512 56.0235 137.384C55.5595 137.248 55.1515 137.076 54.7995 136.868C54.4555 136.66 54.1635 136.428 53.9235 136.172C53.6915 135.908 53.5155 135.624 53.3955 135.32C53.2755 135.016 53.2155 134.696 53.2155 134.36V134.096ZM49.4235 133.472H57.6555V134.732H49.4235V133.472ZM32.4449 151.76H37.1969V153.032H32.4449V151.76ZM33.8129 154.352H35.3849V157.124H33.8129V154.352ZM36.5729 151.76H38.1449V152.456C38.1449 152.848 38.1329 153.316 38.1089 153.86C38.0929 154.396 38.0169 155.016 37.8809 155.72L36.3329 155.54C36.4529 154.86 36.5209 154.272 36.5369 153.776C36.5609 153.28 36.5729 152.84 36.5729 152.456V151.76ZM39.2129 150.944H40.8209V159.26H39.2129V150.944ZM40.1849 154.34H42.1529V155.648H40.1849V154.34ZM33.4049 160.592H41.1809V161.876H33.4049V160.592ZM33.4049 158.528H35.0129V160.988H33.4049V158.528ZM31.9289 157.784L31.7849 156.512C32.4249 156.512 33.1329 156.508 33.9089 156.5C34.6849 156.484 35.4769 156.452 36.2849 156.404C37.0929 156.348 37.8689 156.268 38.6129 156.164L38.7209 157.304C37.9529 157.44 37.1689 157.544 36.3689 157.616C35.5689 157.68 34.7889 157.724 34.0289 157.748C33.2689 157.764 32.5689 157.776 31.9289 157.784ZM50.636 150.932H52.244V162.08H50.636V150.932ZM43.592 158.192H44.576C45.232 158.192 45.852 158.184 46.436 158.168C47.02 158.144 47.592 158.108 48.152 158.06C48.712 158.004 49.284 157.924 49.868 157.82L50.036 159.104C49.14 159.264 48.256 159.372 47.384 159.428C46.52 159.476 45.584 159.5 44.576 159.5H43.592V158.192ZM43.568 151.88H48.812V156.188H45.212V158.684H43.592V154.928H47.192V153.164H43.568V151.88Z" fill="white"/>
</g>
</g>
<g filter="url(#filter9_d_2083_3399)">
<g filter="url(#filter10_d_2083_3399)">
<g filter="url(#filter11_d_2083_3399)">
<rect x="17" y="182" width="50" height="44" rx="5" fill="#1A2A4D"/>
</g>
<path d="M34.5334 197.944H36.0574V209.056H34.5334V197.944ZM33.2134 202.204H35.0494V203.5H33.2134V202.204ZM32.1454 198.124H33.6334V208.564H32.1454V198.124ZM28.4134 199.684H29.6254V200.656C29.6254 201.344 29.5814 202.008 29.4934 202.648C29.4134 203.28 29.2774 203.872 29.0854 204.424C28.9014 204.968 28.6534 205.456 28.3414 205.888C28.0294 206.32 27.6414 206.672 27.1774 206.944L26.2174 205.732C26.7694 205.404 27.2054 204.98 27.5254 204.46C27.8454 203.94 28.0734 203.356 28.2094 202.708C28.3454 202.052 28.4134 201.368 28.4134 200.656V199.684ZM28.7374 199.684H29.9494V200.656C29.9494 201.304 30.0174 201.932 30.1534 202.54C30.2974 203.148 30.5294 203.692 30.8494 204.172C31.1774 204.652 31.6174 205.036 32.1694 205.324L31.2574 206.536C30.6334 206.2 30.1374 205.736 29.7694 205.144C29.4014 204.552 29.1374 203.872 28.9774 203.104C28.8174 202.336 28.7374 201.52 28.7374 200.656V199.684ZM26.5654 199.072H31.6174V200.356H26.5654V199.072ZM41.6965 203.608H43.2805V205.204H41.6965V203.608ZM37.4965 202.672H47.4925V203.836H37.4965V202.672ZM41.6845 197.944H43.2805V199.276H41.6845V197.944ZM41.5885 199.348H42.9925V199.576C42.9925 199.976 42.8925 200.34 42.6925 200.668C42.4925 200.988 42.1965 201.272 41.8045 201.52C41.4125 201.76 40.9245 201.956 40.3405 202.108C39.7565 202.252 39.0805 202.344 38.3125 202.384L37.8685 201.208C38.5485 201.176 39.1245 201.112 39.5965 201.016C40.0685 200.912 40.4485 200.788 40.7365 200.644C41.0325 200.492 41.2485 200.324 41.3845 200.14C41.5205 199.956 41.5885 199.768 41.5885 199.576V199.348ZM41.9725 199.348H43.3765V199.576C43.3765 199.768 43.4405 199.956 43.5685 200.14C43.7045 200.324 43.9205 200.492 44.2165 200.644C44.5125 200.788 44.8965 200.912 45.3685 201.016C45.8485 201.112 46.4245 201.176 47.0965 201.208L46.6525 202.384C45.8845 202.344 45.2085 202.252 44.6245 202.108C44.0405 201.956 43.5525 201.76 43.1605 201.52C42.7685 201.272 42.4725 200.988 42.2725 200.668C42.0725 200.34 41.9725 199.976 41.9725 199.576V199.348ZM38.4205 198.808H46.5445V199.972H38.4205V198.808ZM38.6125 204.508H46.2925V207.256H40.2085V208.312H38.6245V206.188H44.7205V205.648H38.6125V204.508ZM38.6245 207.832H46.5925V208.996H38.6245V207.832ZM48.9315 203.236H49.7715C50.4675 203.236 51.0635 203.232 51.5595 203.224C52.0635 203.208 52.5235 203.18 52.9395 203.14C53.3555 203.1 53.7675 203.044 54.1755 202.972L54.3435 204.244C54.0155 204.3 53.6915 204.348 53.3715 204.388C53.0595 204.428 52.7235 204.456 52.3635 204.472C52.0115 204.488 51.6235 204.5 51.1995 204.508C50.7835 204.516 50.3075 204.52 49.7715 204.52H48.9315V203.236ZM48.9075 198.58H53.7915V202.084H50.5155V204.088H48.9315V200.896H52.2195V199.852H48.9075V198.58ZM56.2035 197.956H57.8115V204.808H56.2035V197.956ZM54.4275 199.492H56.5035V200.764H54.4275V199.492ZM54.4275 201.856H56.5035V203.128H54.4275V201.856ZM50.1915 205.312H57.8115V209.068H56.2035V206.572H50.1915V205.312Z" fill="white"/>
</g>
</g>
<g filter="url(#filter12_d_2083_3399)">
<g filter="url(#filter13_d_2083_3399)">
<g filter="url(#filter14_d_2083_3399)">
<rect x="17" y="238" width="50" height="44" rx="5" fill="#1A2A4D"/>
</g>
<path d="M30.5374 246.18H31.9294V246.516C31.9294 246.9 31.8654 247.272 31.7374 247.632C31.6174 247.992 31.4334 248.328 31.1854 248.64C30.9374 248.944 30.6334 249.22 30.2734 249.468C29.9214 249.708 29.5134 249.912 29.0494 250.08C28.5854 250.248 28.0694 250.368 27.5014 250.44L26.9134 249.204C27.4094 249.14 27.8494 249.044 28.2334 248.916C28.6254 248.78 28.9654 248.624 29.2534 248.448C29.5414 248.264 29.7814 248.068 29.9734 247.86C30.1654 247.652 30.3054 247.432 30.3934 247.2C30.4894 246.968 30.5374 246.74 30.5374 246.516V246.18ZM31.0054 246.18H32.3854V246.516C32.3854 246.74 32.4294 246.968 32.5174 247.2C32.6134 247.432 32.7574 247.652 32.9494 247.86C33.1414 248.068 33.3814 248.264 33.6694 248.448C33.9654 248.624 34.3054 248.78 34.6894 248.916C35.0734 249.044 35.5134 249.14 36.0094 249.204L35.4214 250.44C34.8534 250.368 34.3374 250.248 33.8734 250.08C33.4094 249.912 32.9974 249.708 32.6374 249.468C32.2854 249.22 31.9854 248.944 31.7374 248.64C31.4974 248.328 31.3134 247.992 31.1854 247.632C31.0654 247.272 31.0054 246.9 31.0054 246.516V246.18ZM30.6214 252H32.2174V256.068H30.6214V252ZM26.4334 251.076H36.4894V252.36H26.4334V251.076ZM27.3214 245.52H35.5654V246.78H27.3214V245.52ZM37.4605 250.44H47.5285V251.7H37.4605V250.44ZM41.8285 251.232H43.4245V253.572H41.8285V251.232ZM38.6965 245.412H46.2445V249.552H38.6965V245.412ZM44.6725 246.66H40.2685V248.292H44.6725V246.66ZM38.6245 254.592H46.4125V255.876H38.6245V254.592ZM38.6245 252.636H40.2205V255.024H38.6245V252.636ZM54.1155 248.424H57.0435V249.708H54.1155V248.424ZM51.0915 245.796H52.3755V247.416C52.3755 248.112 52.3155 248.788 52.1955 249.444C52.0755 250.1 51.8915 250.712 51.6435 251.28C51.3955 251.848 51.0795 252.348 50.6955 252.78C50.3195 253.212 49.8715 253.56 49.3515 253.824L48.3555 252.552C48.8275 252.328 49.2315 252.036 49.5675 251.676C49.9115 251.316 50.1955 250.908 50.4195 250.452C50.6515 249.988 50.8195 249.5 50.9235 248.988C51.0355 248.468 51.0915 247.944 51.0915 247.416V245.796ZM51.4155 245.796H52.6875V247.416C52.6875 247.936 52.7395 248.452 52.8435 248.964C52.9475 249.468 53.1035 249.94 53.3115 250.38C53.5275 250.82 53.8035 251.212 54.1395 251.556C54.4755 251.892 54.8755 252.164 55.3395 252.372L54.3795 253.644C53.8595 253.388 53.4115 253.052 53.0355 252.636C52.6595 252.212 52.3515 251.728 52.1115 251.184C51.8795 250.64 51.7035 250.048 51.5835 249.408C51.4715 248.768 51.4155 248.104 51.4155 247.416V245.796ZM56.2395 244.932H57.8355V256.08H56.2395V244.932ZM31.9529 271.488H42.0209V272.784H31.9529V271.488ZM36.1889 269.028H37.7729V271.848H36.1889V269.028ZM36.1289 264.396H37.4849V264.804C37.4849 265.268 37.4169 265.712 37.2809 266.136C37.1529 266.56 36.9609 266.956 36.7049 267.324C36.4569 267.692 36.1489 268.02 35.7809 268.308C35.4129 268.596 34.9929 268.844 34.5209 269.052C34.0489 269.26 33.5329 269.416 32.9729 269.52L32.3369 268.248C32.8329 268.168 33.2809 268.048 33.6809 267.888C34.0889 267.728 34.4449 267.536 34.7489 267.312C35.0529 267.088 35.3049 266.84 35.5049 266.568C35.7129 266.296 35.8689 266.012 35.9729 265.716C36.0769 265.42 36.1289 265.116 36.1289 264.804V264.396ZM36.4649 264.396H37.8089V264.804C37.8089 265.116 37.8609 265.42 37.9649 265.716C38.0689 266.004 38.2249 266.284 38.4329 266.556C38.6409 266.82 38.8969 267.064 39.2009 267.288C39.5129 267.504 39.8729 267.692 40.2809 267.852C40.6969 268.012 41.1569 268.128 41.6609 268.2L41.0369 269.46C40.4609 269.356 39.9329 269.204 39.4529 269.004C38.9809 268.804 38.5569 268.56 38.1809 268.272C37.8129 267.984 37.5009 267.664 37.2449 267.312C36.9889 266.952 36.7929 266.56 36.6569 266.136C36.5289 265.712 36.4649 265.268 36.4649 264.804V264.396ZM32.7809 263.796H41.1569V265.068H32.7809V263.796ZM45.8 269.712H47.396V271.512H45.8V269.712ZM50.66 262.956H52.256V274.068H50.66V262.956ZM43.232 272.22L43.04 270.924C43.712 270.924 44.444 270.92 45.236 270.912C46.028 270.904 46.84 270.876 47.672 270.828C48.512 270.78 49.32 270.704 50.096 270.6L50.204 271.752C49.396 271.896 48.58 272.004 47.756 272.076C46.94 272.14 46.148 272.18 45.38 272.196C44.612 272.212 43.896 272.22 43.232 272.22ZM43.256 264.18H49.952V265.428H43.256V264.18ZM46.604 265.86C47.148 265.86 47.628 265.948 48.044 266.124C48.46 266.3 48.784 266.544 49.016 266.856C49.256 267.168 49.376 267.532 49.376 267.948C49.376 268.356 49.256 268.72 49.016 269.04C48.784 269.352 48.46 269.596 48.044 269.772C47.628 269.948 47.148 270.036 46.604 270.036C46.06 270.036 45.58 269.948 45.164 269.772C44.748 269.596 44.42 269.352 44.18 269.04C43.948 268.72 43.832 268.356 43.832 267.948C43.832 267.532 43.948 267.168 44.18 266.856C44.42 266.544 44.748 266.3 45.164 266.124C45.58 265.948 46.06 265.86 46.604 265.86ZM46.604 267.06C46.236 267.06 45.936 267.14 45.704 267.3C45.472 267.452 45.356 267.668 45.356 267.948C45.356 268.236 45.472 268.456 45.704 268.608C45.936 268.76 46.236 268.836 46.604 268.836C46.972 268.836 47.272 268.76 47.504 268.608C47.736 268.456 47.852 268.236 47.852 267.948C47.852 267.668 47.736 267.452 47.504 267.3C47.272 267.14 46.972 267.06 46.604 267.06ZM45.8 262.992H47.408V264.9H45.8V262.992Z" fill="white"/>
</g>
</g>
<g filter="url(#filter15_d_2083_3399)">
<g filter="url(#filter16_d_2083_3399)">
<g filter="url(#filter17_d_2083_3399)">
<rect x="17" y="294" width="50" height="44" rx="5" fill="#1A2A4D"/>
</g>
<path d="M39.1649 309.944H40.7609V318.632H39.1649V309.944ZM40.2089 313.58H42.1649V314.888H40.2089V313.58ZM33.3569 319.592H41.1449V320.876H33.3569V319.592ZM33.3569 318.08H34.9529V319.964H33.3569V318.08ZM34.4609 315.284H36.0569V316.916H34.4609V315.284ZM32.0009 317.552L31.8209 316.328C32.4609 316.328 33.1689 316.32 33.9449 316.304C34.7289 316.288 35.5249 316.256 36.3329 316.208C37.1489 316.152 37.9329 316.068 38.6849 315.956L38.8049 317.048C38.0289 317.192 37.2369 317.3 36.4289 317.372C35.6209 317.444 34.8369 317.492 34.0769 317.516C33.3249 317.532 32.6329 317.544 32.0009 317.552ZM32.0969 310.844H38.4089V311.984H32.0969V310.844ZM35.2529 312.284C36.0769 312.284 36.7329 312.44 37.2209 312.752C37.7169 313.056 37.9649 313.472 37.9649 314C37.9649 314.536 37.7169 314.956 37.2209 315.26C36.7329 315.564 36.0769 315.716 35.2529 315.716C34.4369 315.716 33.7809 315.564 33.2849 315.26C32.7969 314.956 32.5529 314.536 32.5529 314C32.5529 313.472 32.7969 313.056 33.2849 312.752C33.7809 312.44 34.4369 312.284 35.2529 312.284ZM35.2529 313.352C34.8769 313.352 34.5849 313.408 34.3769 313.52C34.1689 313.624 34.0649 313.784 34.0649 314C34.0649 314.208 34.1689 314.368 34.3769 314.48C34.5849 314.584 34.8769 314.636 35.2529 314.636C35.6289 314.636 35.9209 314.584 36.1289 314.48C36.3449 314.368 36.4529 314.208 36.4529 314C36.4529 313.784 36.3449 313.624 36.1289 313.52C35.9209 313.408 35.6289 313.352 35.2529 313.352ZM34.4609 309.896H36.0569V311.324H34.4609V309.896ZM48.944 312.824H51.524V314.108H48.944V312.824ZM50.684 309.956H52.292V318.056H50.684V309.956ZM44.948 319.592H52.544V320.876H44.948V319.592ZM44.948 317.372H46.544V320.348H44.948V317.372ZM45.56 311.408H46.856V312.104C46.856 312.808 46.744 313.476 46.52 314.108C46.296 314.74 45.952 315.296 45.488 315.776C45.032 316.248 44.444 316.604 43.724 316.844L42.932 315.572C43.388 315.42 43.78 315.224 44.108 314.984C44.444 314.736 44.716 314.456 44.924 314.144C45.14 313.832 45.3 313.504 45.404 313.16C45.508 312.816 45.56 312.464 45.56 312.104V311.408ZM45.896 311.408H47.168V312.104C47.168 312.536 47.256 312.968 47.432 313.4C47.608 313.824 47.88 314.212 48.248 314.564C48.624 314.908 49.104 315.18 49.688 315.38L48.908 316.616C48.22 316.384 47.652 316.044 47.204 315.596C46.764 315.14 46.436 314.612 46.22 314.012C46.004 313.404 45.896 312.768 45.896 312.104V311.408ZM43.364 310.7H49.34V311.972H43.364V310.7Z" fill="white"/>
</g>
</g>
<g filter="url(#filter18_d_2083_3399)">
<g filter="url(#filter19_d_2083_3399)">
<g filter="url(#filter20_d_2083_3399)">
<rect x="17" y="350" width="50" height="44" rx="5" fill="#1A2A4D"/>
</g>
<path d="M21.1299 366.856H27.0699V368.128H21.1299V366.856ZM21.0099 372.664L20.8419 371.368C21.4739 371.368 22.1619 371.364 22.9059 371.356C23.6579 371.34 24.4259 371.312 25.2099 371.272C25.9939 371.224 26.7419 371.156 27.4539 371.068L27.5499 372.232C26.8299 372.36 26.0819 372.456 25.3059 372.52C24.5299 372.576 23.7739 372.616 23.0379 372.64C22.3019 372.656 21.6259 372.664 21.0099 372.664ZM22.0059 367.84H23.5419V371.62H22.0059V367.84ZM24.6579 367.84H26.1939V371.62H24.6579V367.84ZM28.0539 365.956H29.6499V374.14H28.0539V365.956ZM29.2059 369.088H31.1259V370.396H29.2059V369.088ZM22.4859 375.592H30.0459V376.876H22.4859V375.592ZM22.4859 373.372H24.0939V375.928H22.4859V373.372ZM39.9689 365.944H41.4929V377.056H39.9689V365.944ZM38.6369 370.192H40.4849V371.464H38.6369V370.192ZM37.5449 366.124H39.0329V376.564H37.5449V366.124ZM32.2649 367.084H36.6449V374.284H32.2649V367.084ZM35.1689 368.332H33.7529V373.048H35.1689V368.332ZM50.684 365.956H52.292V374.416H50.684V365.956ZM49.244 368.716H51.284V369.988H49.244V368.716ZM49.244 371.092H51.284V372.364H49.244V371.092ZM43.016 367.12H49.124V368.368H43.016V367.12ZM46.136 368.764C46.648 368.764 47.1 368.856 47.492 369.04C47.884 369.224 48.192 369.48 48.416 369.808C48.64 370.136 48.752 370.516 48.752 370.948C48.752 371.372 48.64 371.748 48.416 372.076C48.192 372.404 47.884 372.664 47.492 372.856C47.1 373.04 46.648 373.132 46.136 373.132C45.64 373.132 45.192 373.04 44.792 372.856C44.4 372.664 44.092 372.404 43.868 372.076C43.644 371.748 43.532 371.372 43.532 370.948C43.532 370.516 43.644 370.136 43.868 369.808C44.092 369.48 44.4 369.224 44.792 369.04C45.192 368.856 45.64 368.764 46.136 368.764ZM46.148 369.988C45.82 369.988 45.552 370.072 45.344 370.24C45.144 370.4 45.044 370.636 45.044 370.948C45.044 371.252 45.144 371.488 45.344 371.656C45.552 371.824 45.82 371.908 46.148 371.908C46.468 371.908 46.732 371.824 46.94 371.656C47.148 371.488 47.252 371.252 47.252 370.948C47.252 370.636 47.148 370.4 46.94 370.24C46.732 370.072 46.468 369.988 46.148 369.988ZM45.344 365.92H46.952V367.888H45.344V365.92ZM44.936 375.592H52.532V376.876H44.936V375.592ZM44.936 373.72H46.532V376.192H44.936V373.72ZM61.2431 365.956H62.8391V373.456H61.2431V365.956ZM62.2871 369.1H64.2431V370.408H62.2871V369.1ZM59.1191 373.564C60.3191 373.564 61.2511 373.716 61.9151 374.02C62.5791 374.316 62.9111 374.748 62.9111 375.316C62.9111 375.892 62.5791 376.328 61.9151 376.624C61.2511 376.928 60.3191 377.08 59.1191 377.08C57.9271 377.08 56.9991 376.928 56.3351 376.624C55.6711 376.328 55.3391 375.896 55.3391 375.328C55.3391 374.752 55.6711 374.316 56.3351 374.02C56.9991 373.716 57.9271 373.564 59.1191 373.564ZM59.1191 374.716C58.3751 374.716 57.8271 374.764 57.4751 374.86C57.1231 374.956 56.9471 375.108 56.9471 375.316C56.9471 375.532 57.1231 375.688 57.4751 375.784C57.8271 375.88 58.3751 375.928 59.1191 375.928C59.8711 375.928 60.4231 375.88 60.7751 375.784C61.1271 375.688 61.3031 375.532 61.3031 375.316C61.3031 375.108 61.1271 374.956 60.7751 374.86C60.4231 374.764 59.8711 374.716 59.1191 374.716ZM56.5391 370.852H58.1351V372.472H56.5391V370.852ZM54.0791 373.168L53.8991 371.968C54.5631 371.968 55.2791 371.964 56.0471 371.956C56.8231 371.94 57.6151 371.912 58.4231 371.872C59.2311 371.824 60.0111 371.752 60.7631 371.656L60.8711 372.724C60.0951 372.86 59.3071 372.96 58.5071 373.024C57.7071 373.088 56.9271 373.128 56.1671 373.144C55.4151 373.16 54.7191 373.168 54.0791 373.168ZM54.1751 366.748H60.4871V367.888H54.1751V366.748ZM57.3311 368.164C58.1551 368.164 58.8111 368.308 59.2991 368.596C59.7951 368.876 60.0431 369.264 60.0431 369.76C60.0431 370.248 59.7951 370.636 59.2991 370.924C58.8111 371.204 58.1591 371.344 57.3431 371.344C56.5191 371.344 55.8591 371.204 55.3631 370.924C54.8751 370.636 54.6311 370.248 54.6311 369.76C54.6311 369.264 54.8751 368.876 55.3631 368.596C55.8591 368.308 56.5151 368.164 57.3311 368.164ZM57.3311 369.196C56.9551 369.196 56.6631 369.244 56.4551 369.34C56.2471 369.436 56.1431 369.576 56.1431 369.76C56.1431 369.944 56.2471 370.084 56.4551 370.18C56.6631 370.268 56.9551 370.312 57.3311 370.312C57.7151 370.312 58.0111 370.268 58.2191 370.18C58.4271 370.084 58.5311 369.944 58.5311 369.76C58.5311 369.576 58.4271 369.436 58.2191 369.34C58.0111 369.244 57.7151 369.196 57.3311 369.196ZM56.5391 365.872H58.1351V367.24H56.5391V365.872Z" fill="white"/>
</g>
</g>
<g filter="url(#filter21_d_2083_3399)">
<g filter="url(#filter22_d_2083_3399)">
<g filter="url(#filter23_d_2083_3399)">
<rect x="17" y="406" width="50" height="44" rx="5" fill="#1A2A4D"/>
</g>
<path d="M34.5334 421.956H36.0454V428.784H34.5334V421.956ZM32.4094 422.148H33.8974V428.76H32.4094V422.148ZM30.7774 427.38H33.0094V428.424H30.7774V427.38ZM28.5334 426.6H30.0574V428.724H28.5334V426.6ZM26.5054 427.248L26.3614 426.06C26.7214 426.06 27.1294 426.06 27.5854 426.06C28.0494 426.052 28.5334 426.04 29.0374 426.024C29.5414 426 30.0414 425.968 30.5374 425.928C31.0414 425.888 31.5174 425.832 31.9654 425.76L32.0734 426.816C31.4654 426.952 30.8214 427.052 30.1414 427.116C29.4694 427.172 28.8134 427.208 28.1734 427.224C27.5414 427.24 26.9854 427.248 26.5054 427.248ZM28.1374 429.144H29.7214V429.876H34.4734V429.144H36.0454V432.948H28.1374V429.144ZM29.7214 431.052V431.712H34.4734V431.052H29.7214ZM29.2414 422.316C29.9694 422.316 30.5574 422.468 31.0054 422.772C31.4534 423.076 31.6774 423.48 31.6774 423.984C31.6774 424.488 31.4534 424.892 31.0054 425.196C30.5574 425.5 29.9694 425.652 29.2414 425.652C28.5214 425.652 27.9374 425.5 27.4894 425.196C27.0414 424.892 26.8174 424.488 26.8174 423.984C26.8174 423.48 27.0414 423.076 27.4894 422.772C27.9374 422.468 28.5214 422.316 29.2414 422.316ZM29.2414 423.408C28.9374 423.408 28.6934 423.456 28.5094 423.552C28.3254 423.648 28.2334 423.792 28.2334 423.984C28.2334 424.176 28.3254 424.32 28.5094 424.416C28.6934 424.512 28.9374 424.56 29.2414 424.56C29.5454 424.56 29.7894 424.512 29.9734 424.416C30.1574 424.32 30.2494 424.176 30.2494 423.984C30.2494 423.792 30.1574 423.648 29.9734 423.552C29.7894 423.456 29.5454 423.408 29.2414 423.408ZM43.4965 424.632H45.6085V425.928H43.4965V424.632ZM45.1645 421.956H46.7725V428.556H45.1645V421.956ZM43.0045 428.796C43.7885 428.796 44.4645 428.88 45.0325 429.048C45.6005 429.216 46.0365 429.46 46.3405 429.78C46.6525 430.1 46.8085 430.484 46.8085 430.932C46.8085 431.62 46.4685 432.148 45.7885 432.516C45.1085 432.892 44.1805 433.08 43.0045 433.08C41.8285 433.08 40.9005 432.892 40.2205 432.516C39.5405 432.148 39.2005 431.62 39.2005 430.932C39.2005 430.484 39.3525 430.1 39.6565 429.78C39.9685 429.46 40.4085 429.216 40.9765 429.048C41.5445 428.88 42.2205 428.796 43.0045 428.796ZM43.0045 430.008C42.5245 430.008 42.1205 430.044 41.7925 430.116C41.4645 430.18 41.2125 430.28 41.0365 430.416C40.8685 430.552 40.7845 430.724 40.7845 430.932C40.7845 431.14 40.8685 431.316 41.0365 431.46C41.2125 431.596 41.4645 431.7 41.7925 431.772C42.1205 431.836 42.5245 431.868 43.0045 431.868C43.4845 431.868 43.8885 431.836 44.2165 431.772C44.5445 431.7 44.7925 431.596 44.9605 431.46C45.1285 431.316 45.2125 431.14 45.2125 430.932C45.2125 430.724 45.1285 430.552 44.9605 430.416C44.7925 430.28 44.5445 430.18 44.2165 430.116C43.8885 430.044 43.4845 430.008 43.0045 430.008ZM40.0405 423.06H41.3365V423.768C41.3365 424.472 41.2245 425.144 41.0005 425.784C40.7765 426.424 40.4325 426.988 39.9685 427.476C39.5125 427.956 38.9285 428.316 38.2165 428.556L37.4125 427.296C37.8685 427.144 38.2605 426.94 38.5885 426.684C38.9245 426.428 39.1965 426.144 39.4045 425.832C39.6205 425.512 39.7805 425.176 39.8845 424.824C39.9885 424.472 40.0405 424.12 40.0405 423.768V423.06ZM40.3765 423.06H41.6485V423.756C41.6485 424.196 41.7365 424.628 41.9125 425.052C42.0885 425.476 42.3605 425.86 42.7285 426.204C43.1045 426.548 43.5845 426.82 44.1685 427.02L43.3885 428.268C42.7005 428.036 42.1325 427.696 41.6845 427.248C41.2445 426.792 40.9165 426.264 40.7005 425.664C40.4845 425.056 40.3765 424.42 40.3765 423.756V423.06ZM37.8445 422.628H43.8205V423.888H37.8445V422.628ZM48.5115 430.476H58.5795V431.772H48.5115V430.476ZM52.7355 428.1H54.3195V430.788H52.7355V428.1ZM49.5675 422.652H51.1635V424.368H55.8915V422.652H57.4755V428.436H49.5675V422.652ZM51.1635 425.616V427.164H55.8915V425.616H51.1635Z" fill="white"/>
</g>
</g>
<defs>
<filter id="filter0_d_2083_3399" x="13" y="14" width="58" height="52" filterUnits="userSpaceOnUse" color-interpolation-filters="sRGB">
<feFlood flood-opacity="0" result="BackgroundImageFix"/>
<feColorMatrix in="SourceAlpha" type="matrix" values="0 0 0 0 0 0 0 0 0 0 0 0 0 0 0 0 0 0 127 0" result="hardAlpha"/>
<feOffset dy="4"/>
<feGaussianBlur stdDeviation="2"/>
<feComposite in2="hardAlpha" operator="out"/>
<feColorMatrix type="matrix" values="0 0 0 0 0 0 0 0 0 0 0 0 0 0 0 0 0 0 0.25 0"/>
<feBlend mode="normal" in2="BackgroundImageFix" result="effect1_dropShadow_2083_3399"/>
<feBlend mode="normal" in="SourceGraphic" in2="effect1_dropShadow_2083_3399" result="shape"/>
</filter>
<filter id="filter1_d_2083_3399" x="0.5" y="0" width="82" height="76" filterUnits="userSpaceOnUse" color-interpolation-filters="sRGB">
<feFlood flood-opacity="0" result="BackgroundImageFix"/>
<feColorMatrix in="SourceAlpha" type="matrix" values="0 0 0 0 0 0 0 0 0 0 0 0 0 0 0 0 0 0 127 0" result="hardAlpha"/>
<feOffset dx="-0.5" dy="2"/>
<feGaussianBlur stdDeviation="8"/>
<feComposite in2="hardAlpha" operator="out"/>
<feColorMatrix type="matrix" values="0 0 0 0 0 0 0 0 0 0 0 0 0 0 0 0 0 0 0.25 0"/>
<feBlend mode="normal" in2="BackgroundImageFix" result="effect1_dropShadow_2083_3399"/>
<feBlend mode="normal" in="SourceGraphic" in2="effect1_dropShadow_2083_3399" result="shape"/>
</filter>
<filter id="filter2_d_2083_3399" x="13" y="14" width="58" height="52" filterUnits="userSpaceOnUse" color-interpolation-filters="sRGB">
<feFlood flood-opacity="0" result="BackgroundImageFix"/>
<feColorMatrix in="SourceAlpha" type="matrix" values="0 0 0 0 0 0 0 0 0 0 0 0 0 0 0 0 0 0 127 0" result="hardAlpha"/>
<feOffset dy="4"/>
<feGaussianBlur stdDeviation="2"/>
<feComposite in2="hardAlpha" operator="out"/>
<feColorMatrix type="matrix" values="0 0 0 0 0 0 0 0 0 0 0 0 0 0 0 0 0 0 0.25 0"/>
<feBlend mode="normal" in2="BackgroundImageFix" result="effect1_dropShadow_2083_3399"/>
<feBlend mode="normal" in="SourceGraphic" in2="effect1_dropShadow_2083_3399" result="shape"/>
</filter>
<filter id="filter3_d_2083_3399" x="13" y="70" width="58" height="52" filterUnits="userSpaceOnUse" color-interpolation-filters="sRGB">
<feFlood flood-opacity="0" result="BackgroundImageFix"/>
<feColorMatrix in="SourceAlpha" type="matrix" values="0 0 0 0 0 0 0 0 0 0 0 0 0 0 0 0 0 0 127 0" result="hardAlpha"/>
<feOffset dy="4"/>
<feGaussianBlur stdDeviation="2"/>
<feComposite in2="hardAlpha" operator="out"/>
<feColorMatrix type="matrix" values="0 0 0 0 0 0 0 0 0 0 0 0 0 0 0 0 0 0 0.25 0"/>
<feBlend mode="normal" in2="BackgroundImageFix" result="effect1_dropShadow_2083_3399"/>
<feBlend mode="normal" in="SourceGraphic" in2="effect1_dropShadow_2083_3399" result="shape"/>
</filter>
<filter id="filter4_d_2083_3399" x="0.5" y="56" width="82" height="76" filterUnits="userSpaceOnUse" color-interpolation-filters="sRGB">
<feFlood flood-opacity="0" result="BackgroundImageFix"/>
<feColorMatrix in="SourceAlpha" type="matrix" values="0 0 0 0 0 0 0 0 0 0 0 0 0 0 0 0 0 0 127 0" result="hardAlpha"/>
<feOffset dx="-0.5" dy="2"/>
<feGaussianBlur stdDeviation="8"/>
<feComposite in2="hardAlpha" operator="out"/>
<feColorMatrix type="matrix" values="0 0 0 0 0 0 0 0 0 0 0 0 0 0 0 0 0 0 0.25 0"/>
<feBlend mode="normal" in2="BackgroundImageFix" result="effect1_dropShadow_2083_3399"/>
<feBlend mode="normal" in="SourceGraphic" in2="effect1_dropShadow_2083_3399" result="shape"/>
</filter>
<filter id="filter5_d_2083_3399" x="13" y="70" width="58" height="52" filterUnits="userSpaceOnUse" color-interpolation-filters="sRGB">
<feFlood flood-opacity="0" result="BackgroundImageFix"/>
<feColorMatrix in="SourceAlpha" type="matrix" values="0 0 0 0 0 0 0 0 0 0 0 0 0 0 0 0 0 0 127 0" result="hardAlpha"/>
<feOffset dy="4"/>
<feGaussianBlur stdDeviation="2"/>
<feComposite in2="hardAlpha" operator="out"/>
<feColorMatrix type="matrix" values="0 0 0 0 0 0 0 0 0 0 0 0 0 0 0 0 0 0 0.25 0"/>
<feBlend mode="normal" in2="BackgroundImageFix" result="effect1_dropShadow_2083_3399"/>
<feBlend mode="normal" in="SourceGraphic" in2="effect1_dropShadow_2083_3399" result="shape"/>
</filter>
<filter id="filter6_d_2083_3399" x="13" y="126" width="58" height="52" filterUnits="userSpaceOnUse" color-interpolation-filters="sRGB">
<feFlood flood-opacity="0" result="BackgroundImageFix"/>
<feColorMatrix in="SourceAlpha" type="matrix" values="0 0 0 0 0 0 0 0 0 0 0 0 0 0 0 0 0 0 127 0" result="hardAlpha"/>
<feOffset dy="4"/>
<feGaussianBlur stdDeviation="2"/>
<feComposite in2="hardAlpha" operator="out"/>
<feColorMatrix type="matrix" values="0 0 0 0 0 0 0 0 0 0 0 0 0 0 0 0 0 0 0.25 0"/>
<feBlend mode="normal" in2="BackgroundImageFix" result="effect1_dropShadow_2083_3399"/>
<feBlend mode="normal" in="SourceGraphic" in2="effect1_dropShadow_2083_3399" result="shape"/>
</filter>
<filter id="filter7_d_2083_3399" x="0.5" y="112" width="82" height="76" filterUnits="userSpaceOnUse" color-interpolation-filters="sRGB">
<feFlood flood-opacity="0" result="BackgroundImageFix"/>
<feColorMatrix in="SourceAlpha" type="matrix" values="0 0 0 0 0 0 0 0 0 0 0 0 0 0 0 0 0 0 127 0" result="hardAlpha"/>
<feOffset dx="-0.5" dy="2"/>
<feGaussianBlur stdDeviation="8"/>
<feComposite in2="hardAlpha" operator="out"/>
<feColorMatrix type="matrix" values="0 0 0 0 0 0 0 0 0 0 0 0 0 0 0 0 0 0 0.25 0"/>
<feBlend mode="normal" in2="BackgroundImageFix" result="effect1_dropShadow_2083_3399"/>
<feBlend mode="normal" in="SourceGraphic" in2="effect1_dropShadow_2083_3399" result="shape"/>
</filter>
<filter id="filter8_d_2083_3399" x="13" y="126" width="58" height="52" filterUnits="userSpaceOnUse" color-interpolation-filters="sRGB">
<feFlood flood-opacity="0" result="BackgroundImageFix"/>
<feColorMatrix in="SourceAlpha" type="matrix" values="0 0 0 0 0 0 0 0 0 0 0 0 0 0 0 0 0 0 127 0" result="hardAlpha"/>
<feOffset dy="4"/>
<feGaussianBlur stdDeviation="2"/>
<feComposite in2="hardAlpha" operator="out"/>
<feColorMatrix type="matrix" values="0 0 0 0 0 0 0 0 0 0 0 0 0 0 0 0 0 0 0.25 0"/>
<feBlend mode="normal" in2="BackgroundImageFix" result="effect1_dropShadow_2083_3399"/>
<feBlend mode="normal" in="SourceGraphic" in2="effect1_dropShadow_2083_3399" result="shape"/>
</filter>
<filter id="filter9_d_2083_3399" x="13" y="182" width="58" height="52" filterUnits="userSpaceOnUse" color-interpolation-filters="sRGB">
<feFlood flood-opacity="0" result="BackgroundImageFix"/>
<feColorMatrix in="SourceAlpha" type="matrix" values="0 0 0 0 0 0 0 0 0 0 0 0 0 0 0 0 0 0 127 0" result="hardAlpha"/>
<feOffset dy="4"/>
<feGaussianBlur stdDeviation="2"/>
<feComposite in2="hardAlpha" operator="out"/>
<feColorMatrix type="matrix" values="0 0 0 0 0 0 0 0 0 0 0 0 0 0 0 0 0 0 0.25 0"/>
<feBlend mode="normal" in2="BackgroundImageFix" result="effect1_dropShadow_2083_3399"/>
<feBlend mode="normal" in="SourceGraphic" in2="effect1_dropShadow_2083_3399" result="shape"/>
</filter>
<filter id="filter10_d_2083_3399" x="0.5" y="168" width="82" height="76" filterUnits="userSpaceOnUse" color-interpolation-filters="sRGB">
<feFlood flood-opacity="0" result="BackgroundImageFix"/>
<feColorMatrix in="SourceAlpha" type="matrix" values="0 0 0 0 0 0 0 0 0 0 0 0 0 0 0 0 0 0 127 0" result="hardAlpha"/>
<feOffset dx="-0.5" dy="2"/>
<feGaussianBlur stdDeviation="8"/>
<feComposite in2="hardAlpha" operator="out"/>
<feColorMatrix type="matrix" values="0 0 0 0 0 0 0 0 0 0 0 0 0 0 0 0 0 0 0.25 0"/>
<feBlend mode="normal" in2="BackgroundImageFix" result="effect1_dropShadow_2083_3399"/>
<feBlend mode="normal" in="SourceGraphic" in2="effect1_dropShadow_2083_3399" result="shape"/>
</filter>
<filter id="filter11_d_2083_3399" x="13" y="182" width="58" height="52" filterUnits="userSpaceOnUse" color-interpolation-filters="sRGB">
<feFlood flood-opacity="0" result="BackgroundImageFix"/>
<feColorMatrix in="SourceAlpha" type="matrix" values="0 0 0 0 0 0 0 0 0 0 0 0 0 0 0 0 0 0 127 0" result="hardAlpha"/>
<feOffset dy="4"/>
<feGaussianBlur stdDeviation="2"/>
<feComposite in2="hardAlpha" operator="out"/>
<feColorMatrix type="matrix" values="0 0 0 0 0 0 0 0 0 0 0 0 0 0 0 0 0 0 0.25 0"/>
<feBlend mode="normal" in2="BackgroundImageFix" result="effect1_dropShadow_2083_3399"/>
<feBlend mode="normal" in="SourceGraphic" in2="effect1_dropShadow_2083_3399" result="shape"/>
</filter>
<filter id="filter12_d_2083_3399" x="13" y="238" width="58" height="52" filterUnits="userSpaceOnUse" color-interpolation-filters="sRGB">
<feFlood flood-opacity="0" result="BackgroundImageFix"/>
<feColorMatrix in="SourceAlpha" type="matrix" values="0 0 0 0 0 0 0 0 0 0 0 0 0 0 0 0 0 0 127 0" result="hardAlpha"/>
<feOffset dy="4"/>
<feGaussianBlur stdDeviation="2"/>
<feComposite in2="hardAlpha" operator="out"/>
<feColorMatrix type="matrix" values="0 0 0 0 0 0 0 0 0 0 0 0 0 0 0 0 0 0 0.25 0"/>
<feBlend mode="normal" in2="BackgroundImageFix" result="effect1_dropShadow_2083_3399"/>
<feBlend mode="normal" in="SourceGraphic" in2="effect1_dropShadow_2083_3399" result="shape"/>
</filter>
<filter id="filter13_d_2083_3399" x="0.5" y="224" width="82" height="76" filterUnits="userSpaceOnUse" color-interpolation-filters="sRGB">
<feFlood flood-opacity="0" result="BackgroundImageFix"/>
<feColorMatrix in="SourceAlpha" type="matrix" values="0 0 0 0 0 0 0 0 0 0 0 0 0 0 0 0 0 0 127 0" result="hardAlpha"/>
<feOffset dx="-0.5" dy="2"/>
<feGaussianBlur stdDeviation="8"/>
<feComposite in2="hardAlpha" operator="out"/>
<feColorMatrix type="matrix" values="0 0 0 0 0 0 0 0 0 0 0 0 0 0 0 0 0 0 0.25 0"/>
<feBlend mode="normal" in2="BackgroundImageFix" result="effect1_dropShadow_2083_3399"/>
<feBlend mode="normal" in="SourceGraphic" in2="effect1_dropShadow_2083_3399" result="shape"/>
</filter>
<filter id="filter14_d_2083_3399" x="13" y="238" width="58" height="52" filterUnits="userSpaceOnUse" color-interpolation-filters="sRGB">
<feFlood flood-opacity="0" result="BackgroundImageFix"/>
<feColorMatrix in="SourceAlpha" type="matrix" values="0 0 0 0 0 0 0 0 0 0 0 0 0 0 0 0 0 0 127 0" result="hardAlpha"/>
<feOffset dy="4"/>
<feGaussianBlur stdDeviation="2"/>
<feComposite in2="hardAlpha" operator="out"/>
<feColorMatrix type="matrix" values="0 0 0 0 0 0 0 0 0 0 0 0 0 0 0 0 0 0 0.25 0"/>
<feBlend mode="normal" in2="BackgroundImageFix" result="effect1_dropShadow_2083_3399"/>
<feBlend mode="normal" in="SourceGraphic" in2="effect1_dropShadow_2083_3399" result="shape"/>
</filter>
<filter id="filter15_d_2083_3399" x="13" y="294" width="58" height="52" filterUnits="userSpaceOnUse" color-interpolation-filters="sRGB">
<feFlood flood-opacity="0" result="BackgroundImageFix"/>
<feColorMatrix in="SourceAlpha" type="matrix" values="0 0 0 0 0 0 0 0 0 0 0 0 0 0 0 0 0 0 127 0" result="hardAlpha"/>
<feOffset dy="4"/>
<feGaussianBlur stdDeviation="2"/>
<feComposite in2="hardAlpha" operator="out"/>
<feColorMatrix type="matrix" values="0 0 0 0 0 0 0 0 0 0 0 0 0 0 0 0 0 0 0.25 0"/>
<feBlend mode="normal" in2="BackgroundImageFix" result="effect1_dropShadow_2083_3399"/>
<feBlend mode="normal" in="SourceGraphic" in2="effect1_dropShadow_2083_3399" result="shape"/>
</filter>
<filter id="filter16_d_2083_3399" x="0.5" y="280" width="82" height="76" filterUnits="userSpaceOnUse" color-interpolation-filters="sRGB">
<feFlood flood-opacity="0" result="BackgroundImageFix"/>
<feColorMatrix in="SourceAlpha" type="matrix" values="0 0 0 0 0 0 0 0 0 0 0 0 0 0 0 0 0 0 127 0" result="hardAlpha"/>
<feOffset dx="-0.5" dy="2"/>
<feGaussianBlur stdDeviation="8"/>
<feComposite in2="hardAlpha" operator="out"/>
<feColorMatrix type="matrix" values="0 0 0 0 0 0 0 0 0 0 0 0 0 0 0 0 0 0 0.25 0"/>
<feBlend mode="normal" in2="BackgroundImageFix" result="effect1_dropShadow_2083_3399"/>
<feBlend mode="normal" in="SourceGraphic" in2="effect1_dropShadow_2083_3399" result="shape"/>
</filter>
<filter id="filter17_d_2083_3399" x="13" y="294" width="58" height="52" filterUnits="userSpaceOnUse" color-interpolation-filters="sRGB">
<feFlood flood-opacity="0" result="BackgroundImageFix"/>
<feColorMatrix in="SourceAlpha" type="matrix" values="0 0 0 0 0 0 0 0 0 0 0 0 0 0 0 0 0 0 127 0" result="hardAlpha"/>
<feOffset dy="4"/>
<feGaussianBlur stdDeviation="2"/>
<feComposite in2="hardAlpha" operator="out"/>
<feColorMatrix type="matrix" values="0 0 0 0 0 0 0 0 0 0 0 0 0 0 0 0 0 0 0.25 0"/>
<feBlend mode="normal" in2="BackgroundImageFix" result="effect1_dropShadow_2083_3399"/>
<feBlend mode="normal" in="SourceGraphic" in2="effect1_dropShadow_2083_3399" result="shape"/>
</filter>
<filter id="filter18_d_2083_3399" x="13" y="350" width="58" height="52" filterUnits="userSpaceOnUse" color-interpolation-filters="sRGB">
<feFlood flood-opacity="0" result="BackgroundImageFix"/>
<feColorMatrix in="SourceAlpha" type="matrix" values="0 0 0 0 0 0 0 0 0 0 0 0 0 0 0 0 0 0 127 0" result="hardAlpha"/>
<feOffset dy="4"/>
<feGaussianBlur stdDeviation="2"/>
<feComposite in2="hardAlpha" operator="out"/>
<feColorMatrix type="matrix" values="0 0 0 0 0 0 0 0 0 0 0 0 0 0 0 0 0 0 0.25 0"/>
<feBlend mode="normal" in2="BackgroundImageFix" result="effect1_dropShadow_2083_3399"/>
<feBlend mode="normal" in="SourceGraphic" in2="effect1_dropShadow_2083_3399" result="shape"/>
</filter>
<filter id="filter19_d_2083_3399" x="0.5" y="336" width="82" height="76" filterUnits="userSpaceOnUse" color-interpolation-filters="sRGB">
<feFlood flood-opacity="0" result="BackgroundImageFix"/>
<feColorMatrix in="SourceAlpha" type="matrix" values="0 0 0 0 0 0 0 0 0 0 0 0 0 0 0 0 0 0 127 0" result="hardAlpha"/>
<feOffset dx="-0.5" dy="2"/>
<feGaussianBlur stdDeviation="8"/>
<feComposite in2="hardAlpha" operator="out"/>
<feColorMatrix type="matrix" values="0 0 0 0 0 0 0 0 0 0 0 0 0 0 0 0 0 0 0.25 0"/>
<feBlend mode="normal" in2="BackgroundImageFix" result="effect1_dropShadow_2083_3399"/>
<feBlend mode="normal" in="SourceGraphic" in2="effect1_dropShadow_2083_3399" result="shape"/>
</filter>
<filter id="filter20_d_2083_3399" x="13" y="350" width="58" height="52" filterUnits="userSpaceOnUse" color-interpolation-filters="sRGB">
<feFlood flood-opacity="0" result="BackgroundImageFix"/>
<feColorMatrix in="SourceAlpha" type="matrix" values="0 0 0 0 0 0 0 0 0 0 0 0 0 0 0 0 0 0 127 0" result="hardAlpha"/>
<feOffset dy="4"/>
<feGaussianBlur stdDeviation="2"/>
<feComposite in2="hardAlpha" operator="out"/>
<feColorMatrix type="matrix" values="0 0 0 0 0 0 0 0 0 0 0 0 0 0 0 0 0 0 0.25 0"/>
<feBlend mode="normal" in2="BackgroundImageFix" result="effect1_dropShadow_2083_3399"/>
<feBlend mode="normal" in="SourceGraphic" in2="effect1_dropShadow_2083_3399" result="shape"/>
</filter>
<filter id="filter21_d_2083_3399" x="13" y="406" width="58" height="52" filterUnits="userSpaceOnUse" color-interpolation-filters="sRGB">
<feFlood flood-opacity="0" result="BackgroundImageFix"/>
<feColorMatrix in="SourceAlpha" type="matrix" values="0 0 0 0 0 0 0 0 0 0 0 0 0 0 0 0 0 0 127 0" result="hardAlpha"/>
<feOffset dy="4"/>
<feGaussianBlur stdDeviation="2"/>
<feComposite in2="hardAlpha" operator="out"/>
<feColorMatrix type="matrix" values="0 0 0 0 0 0 0 0 0 0 0 0 0 0 0 0 0 0 0.25 0"/>
<feBlend mode="normal" in2="BackgroundImageFix" result="effect1_dropShadow_2083_3399"/>
<feBlend mode="normal" in="SourceGraphic" in2="effect1_dropShadow_2083_3399" result="shape"/>
</filter>
<filter id="filter22_d_2083_3399" x="0.5" y="392" width="82" height="76" filterUnits="userSpaceOnUse" color-interpolation-filters="sRGB">
<feFlood flood-opacity="0" result="BackgroundImageFix"/>
<feColorMatrix in="SourceAlpha" type="matrix" values="0 0 0 0 0 0 0 0 0 0 0 0 0 0 0 0 0 0 127 0" result="hardAlpha"/>
<feOffset dx="-0.5" dy="2"/>
<feGaussianBlur stdDeviation="8"/>
<feComposite in2="hardAlpha" operator="out"/>
<feColorMatrix type="matrix" values="0 0 0 0 0 0 0 0 0 0 0 0 0 0 0 0 0 0 0.25 0"/>
<feBlend mode="normal" in2="BackgroundImageFix" result="effect1_dropShadow_2083_3399"/>
<feBlend mode="normal" in="SourceGraphic" in2="effect1_dropShadow_2083_3399" result="shape"/>
</filter>
<filter id="filter23_d_2083_3399" x="13" y="406" width="58" height="52" filterUnits="userSpaceOnUse" color-interpolation-filters="sRGB">
<feFlood flood-opacity="0" result="BackgroundImageFix"/>
<feColorMatrix in="SourceAlpha" type="matrix" values="0 0 0 0 0 0 0 0 0 0 0 0 0 0 0 0 0 0 127 0" result="hardAlpha"/>
<feOffset dy="4"/>
<feGaussianBlur stdDeviation="2"/>
<feComposite in2="hardAlpha" operator="out"/>
<feColorMatrix type="matrix" values="0 0 0 0 0 0 0 0 0 0 0 0 0 0 0 0 0 0 0.25 0"/>
<feBlend mode="normal" in2="BackgroundImageFix" result="effect1_dropShadow_2083_3399"/>
<feBlend mode="normal" in="SourceGraphic" in2="effect1_dropShadow_2083_3399" result="shape"/>
</filter>
</defs>
</svg>
