<svg xmlns="http://www.w3.org/2000/svg" width="28" height="30" viewBox="0 0 28 30" fill="none">
  <path fill-rule="evenodd" clip-rule="evenodd" d="M24.2724 5.68402H6.97668L8.17202 17.3972L21.5334 16.0589C22.3676 16.0617 23.1436 15.6314 23.583 14.9222L26.322 9.23885C26.7636 8.50845 26.7731 7.59568 26.3468 6.85626C25.9204 6.11684 25.1257 5.66775 24.2724 5.68402Z" stroke="white" stroke-width="1.5" stroke-linecap="round" stroke-linejoin="round"/>
  <path fill-rule="evenodd" clip-rule="evenodd" d="M9.55624 26.7803C9.55219 27.7241 8.78459 28.4862 7.84087 28.4835C6.89715 28.4808 6.13391 27.7143 6.13526 26.7706C6.1366 25.8268 6.90201 25.0625 7.84574 25.0625C8.30036 25.0635 8.73598 25.245 9.05676 25.5672C9.37755 25.8893 9.55721 26.3257 9.55624 26.7803V26.7803Z" stroke="white" stroke-width="1.5" stroke-linecap="round" stroke-linejoin="round"/>
  <path fill-rule="evenodd" clip-rule="evenodd" d="M19.8228 26.7803C19.8188 27.7241 19.0512 28.4862 18.1075 28.4835C17.1637 28.4808 16.4005 27.7143 16.4019 26.7706C16.4032 25.8268 17.1686 25.0625 18.1123 25.0625C18.567 25.0635 19.0026 25.245 19.3234 25.5672C19.6441 25.8893 19.8238 26.3257 19.8228 26.7803V26.7803Z" stroke="white" stroke-width="1.5" stroke-linecap="round" stroke-linejoin="round"/>
  <path d="M6.24992 5.86952C6.35228 6.27089 6.76062 6.51329 7.16199 6.41094C7.56336 6.30858 7.80576 5.90024 7.70341 5.49887L6.24992 5.86952ZM5.83267 1.19803L6.55948 1.01269L6.55684 1.00289L5.83267 1.19803ZM5.5705 1.00003V1.7501L5.58092 1.74995L5.5705 1.00003ZM1 0.250026C0.585786 0.250026 0.25 0.585813 0.25 1.00003C0.25 1.41424 0.585786 1.75003 1 1.75003V0.250026ZM8.20322 18.1467C8.61707 18.1295 8.93859 17.78 8.92135 17.3662C8.90411 16.9523 8.55464 16.6308 8.14078 16.648L8.20322 18.1467ZM8.172 21.625L8.14078 22.3744C8.15118 22.3748 8.16159 22.375 8.172 22.375V21.625ZM20.349 22.375C20.7632 22.375 21.099 22.0393 21.099 21.625C21.099 21.2108 20.7632 20.875 20.349 20.875V22.375ZM7.70341 5.49887L6.55941 1.0127L5.10592 1.38335L6.24992 5.86952L7.70341 5.49887ZM6.55684 1.00289C6.43577 0.553589 6.02537 0.243634 5.56008 0.250098L5.58092 1.74995C5.36039 1.75302 5.16588 1.60611 5.1085 1.39316L6.55684 1.00289ZM5.5705 0.250026H1V1.75003H5.5705V0.250026ZM8.14078 16.648C6.60585 16.712 5.39439 17.9749 5.39439 19.5112H6.89439C6.89439 18.7791 7.47172 18.1772 8.20322 18.1467L8.14078 16.648ZM5.39439 19.5112C5.39439 21.0475 6.60584 22.3104 8.14078 22.3744L8.20322 20.8757C7.47172 20.8452 6.89439 20.2433 6.89439 19.5112H5.39439ZM8.172 22.375H20.349V20.875H8.172V22.375Z" fill="white"/>
</svg>