<svg xmlns="http://www.w3.org/2000/svg" width="227" height="84" viewBox="0 0 227 84" fill="none">
  <g clip-path="url(#clip0_19_842)">
    <path d="M7.24692 2.66797H25.4781C28.2453 2.66797 30.405 3.32238 31.9573 4.63121C33.5096 5.94004 34.2942 7.76066 34.2942 10.0847C34.2942 10.479 34.2689 10.9153 34.2099 11.4019C34.1508 11.8885 34.0749 12.3499 33.9821 12.7862C33.3747 15.7227 31.8814 17.988 29.477 19.5905C28.7346 20.0771 27.9078 20.505 26.9967 20.8741C27.3426 21.0167 27.6547 21.1845 27.9247 21.3691C29.671 22.5521 30.2953 24.5405 29.7807 27.3428L28.7768 33.006C28.5743 34.147 28.5237 34.9524 28.6334 35.4223C28.743 35.8921 29.0636 36.278 29.5867 36.5633L29.3926 37.4862H21.3189C21.1755 37.0583 21.1502 36.2529 21.2346 35.0615C21.3189 33.8701 21.4961 32.62 21.7492 31.3028L22.3819 28.1314C22.6688 26.5373 22.441 25.3963 21.6986 24.7167C20.9562 24.0371 19.5557 23.7015 17.4804 23.7015H10.1406H10.1659L7.29754 37.5197H0L7.24692 2.66797ZM11.3808 17.9041H20.4078C22.2048 17.9041 23.5968 17.5517 24.6007 16.8386C25.6047 16.1254 26.2627 15.0263 26.5749 13.5413C26.6424 13.2225 26.6845 12.9372 26.7183 12.6772C26.752 12.4171 26.7689 12.157 26.7689 11.9053C26.7689 10.7391 26.3724 9.88331 25.5794 9.35474C24.7863 8.82618 23.5124 8.5577 21.7745 8.5577H13.3296L11.3892 17.8957L11.3808 17.9041Z" fill="#3E3A39"/>
    <path d="M35.2391 37.503L42.4861 2.66797H68.3354L67.7364 5.77224L67.1374 8.87652H48.4844L46.9574 16.1003H64.1847L63.5435 19.2045L62.9023 22.3088H45.675L43.8359 31.286H63.2904L62.5986 34.3903L61.9068 37.4946H35.2476L35.2391 37.503Z" fill="#3E3A39"/>
    <path d="M85.0902 2.66797H93.5267L98.4367 37.503H90.4473L89.6628 30.2037H76.6959L72.7983 37.503H65.0536L85.0902 2.66797ZM79.868 24.4482H89.0638L87.4861 10.3531H87.5115L79.868 24.4482Z" fill="#3E3A39"/>
    <path d="M110.273 2.66855H122.81C127.492 2.66855 131.044 3.65017 133.456 5.60502C135.869 7.55988 137.076 10.446 137.076 14.255C137.059 15.0437 137.008 15.8827 136.907 16.7636C136.806 17.6446 136.671 18.5507 136.477 19.4652C135.11 25.959 132.891 30.5902 129.829 33.3505C126.766 36.1108 122.303 37.4952 116.44 37.4952H103.026L110.273 2.66016V2.66855ZM111.53 31.7229H117.638C120.827 31.7229 123.257 30.9342 124.936 29.3569C126.614 27.7796 127.846 25.1368 128.622 21.4452C128.842 20.3545 129.01 19.3729 129.112 18.492C129.213 17.611 129.272 16.772 129.289 15.9666C129.272 13.4244 128.648 11.5535 127.399 10.3621C126.159 9.17074 124.21 8.57506 121.569 8.57506H116.347L111.53 31.7229Z" fill="#3E3A39"/>
    <path d="M150.085 24.3308L142.745 2.67636H151.367L155.349 17.6943V17.7195L165.473 2.66797H173.732L157.391 24.3056L154.649 37.503H147.351L150.093 24.3308H150.085Z" fill="#3E3A39"/>
    <path d="M16.5776 80.6203C14.1564 78.3634 12.9415 75.2255 12.9415 71.2151C12.9415 70.4265 12.9921 69.5539 13.0934 68.6059C13.1946 67.6578 13.3465 66.7349 13.5321 65.8372C14.7048 60.1992 17.1513 55.7189 20.8718 52.4049C24.5923 49.0909 29.0383 47.4297 34.2183 47.4297C38.4872 47.4297 41.8364 48.5707 44.2493 50.8528C46.6621 53.1348 47.8685 56.2978 47.8685 60.3418C47.8516 61.1304 47.7926 62.0114 47.6913 62.9846C47.5901 63.9579 47.4382 64.9059 47.2526 65.8372C46.0968 71.4165 43.6503 75.838 39.9129 79.1101C36.2093 82.3821 31.7802 84.0182 26.617 84.0182C22.3482 84.0182 18.9989 82.8855 16.5776 80.6286V80.6203ZM35.4331 74.6466C37.576 72.4652 39.044 69.5204 39.8201 65.812C39.9635 65.1157 40.0732 64.3941 40.1576 63.6558C40.2419 62.9175 40.2841 62.2379 40.301 61.6171C40.301 59.0749 39.6514 57.0865 38.3522 55.6602C37.0529 54.2339 35.256 53.5124 32.9613 53.5124C30.0676 53.5124 27.5451 54.6199 25.3938 56.8264C23.2425 59.033 21.7745 62.0282 20.9984 65.8036C20.8549 66.5168 20.7368 67.2299 20.6525 67.9599C20.5681 68.6898 20.5175 69.3358 20.5175 69.9063C20.5175 72.4149 21.1671 74.3781 22.4747 75.796C23.7824 77.2139 25.5878 77.9187 27.8909 77.9187C30.7762 77.9187 33.2903 76.828 35.4331 74.6466Z" fill="#3E3A39"/>
    <path d="M56.6424 48.293H74.8736C77.6408 48.293 79.8005 48.9474 81.3528 50.2562C82.9052 51.565 83.6897 53.3857 83.6897 55.7097C83.6897 56.104 83.6644 56.5403 83.6054 57.0269C83.5463 57.5135 83.4704 57.975 83.3776 58.4112C82.7702 61.3477 81.2769 63.613 78.8725 65.2155C78.1301 65.7021 77.3033 66.13 76.3922 66.4991C76.7381 66.6418 77.0502 66.8095 77.3202 66.9941C79.0666 68.1771 79.6909 70.1655 79.1762 72.9678L78.1723 78.631C77.9698 79.772 77.9192 80.5774 78.0289 81.0473C78.1385 81.5171 78.4591 81.903 78.9822 82.1883L78.7882 83.1112H70.7145C70.571 82.6833 70.5457 81.8779 70.6301 80.6865C70.7145 79.4951 70.8916 78.245 71.1447 76.9278L71.7775 73.7564C72.0643 72.1623 71.8365 71.0213 71.0941 70.3417C70.3517 69.6621 68.9512 69.3265 66.8759 69.3265H59.5361H59.5614L56.693 83.1447H49.3955L56.6424 48.3097V48.293ZM60.7763 63.5291H69.8033C71.6003 63.5291 72.9923 63.1767 73.9962 62.4636C75.0002 61.7504 75.6582 60.6513 75.9704 59.1663C76.0379 58.8475 76.0801 58.5622 76.1138 58.3022C76.1475 58.0421 76.1644 57.782 76.1644 57.5303C76.1644 56.3641 75.7679 55.5083 74.9749 54.9797C74.1818 54.4512 72.9079 54.1827 71.17 54.1827H62.7251L60.7847 63.5207L60.7763 63.5291Z" fill="#3E3A39"/>
    <path d="M91.8816 48.2935H104.418C109.1 48.2935 112.652 49.2752 115.065 51.23C117.478 53.1849 118.684 56.071 118.684 59.88C118.667 60.6687 118.617 61.5077 118.515 62.3886C118.414 63.2696 118.279 64.1757 118.085 65.0902C116.719 71.584 114.5 76.2152 111.437 78.9755C108.375 81.7358 103.912 83.1202 98.0486 83.1202H84.6346L91.8816 48.2852V48.2935ZM93.1386 77.3479H99.2466C102.436 77.3479 104.865 76.5592 106.544 74.9819C108.223 73.4046 109.455 70.7618 110.231 67.0702C110.45 65.9795 110.619 64.9979 110.72 64.117C110.821 63.236 110.88 62.397 110.897 61.5916C110.88 59.0494 110.256 57.1785 109.008 55.9871C107.767 54.7957 105.819 54.2001 103.178 54.2001H97.9558L93.1386 77.3479Z" fill="#3E3A39"/>
    <path d="M119.882 83.128L127.129 48.293H152.978L152.379 51.3972L151.78 54.5015H133.127L131.6 61.7252H148.828L148.187 64.8295L147.545 67.9338H130.318L128.479 76.911H147.933L147.242 80.0153L146.55 83.1196H119.891L119.882 83.128Z" fill="#3E3A39"/>
    <path d="M159.677 48.293H177.908C180.675 48.293 182.835 48.9474 184.387 50.2562C185.94 51.565 186.724 53.3857 186.724 55.7097C186.724 56.104 186.699 56.5403 186.64 57.0269C186.581 57.5135 186.505 57.975 186.412 58.4112C185.805 61.3477 184.311 63.613 181.907 65.2155C181.165 65.7021 180.338 66.13 179.427 66.4991C179.773 66.6418 180.085 66.8095 180.355 66.9941C182.101 68.1771 182.725 70.1655 182.211 72.9678L181.207 78.631C181.004 79.772 180.954 80.5774 181.063 81.0473C181.173 81.5171 181.494 81.903 182.017 82.1883L181.823 83.1112H173.749C173.606 82.6833 173.58 81.8779 173.665 80.6865C173.749 79.4951 173.926 78.245 174.179 76.9278L174.812 73.7564C175.099 72.1623 174.871 71.0213 174.129 70.3417C173.386 69.6621 171.986 69.3265 169.91 69.3265H162.571H162.596L159.728 83.1447H152.43L159.677 48.3097V48.293ZM163.811 63.5291H172.838C174.635 63.5291 176.027 63.1767 177.031 62.4636C178.035 61.7504 178.693 60.6513 179.005 59.1663C179.072 58.8475 179.115 58.5622 179.148 58.3022C179.182 58.0421 179.199 57.782 179.199 57.5303C179.199 56.3641 178.802 55.5083 178.009 54.9797C177.216 54.4512 175.942 54.1827 174.205 54.1827H165.76L163.819 63.5207L163.811 63.5291Z" fill="#3E3A39"/>
    <path d="M201.168 59.3237L204.745 20.1427L208.878 0.417969H226.485L222.352 20.1427L209.612 59.3237H201.176H201.168Z" fill="#F39800" stroke="#F39800" stroke-miterlimit="10"/>
    <path d="M214.151 64.6797H195.92V82.8103H214.151V64.6797Z" fill="#F39800"/>
    <path d="M211.738 66.8008H198.291V80.1743H211.738V66.8008Z" fill="#F7F8F8"/>
    <path d="M209.427 69.3672H200.636V78.1095H209.427V69.3672Z" fill="#F39800"/>
  </g>
  <defs>
    <clipPath id="clip0_19_842">
      <rect width="227" height="84" fill="white"/>
    </clipPath>
  </defs>
</svg>