<svg xmlns="http://www.w3.org/2000/svg" width="44" height="42" viewBox="0 0 44 42" fill="none">
  <path d="M42.3902 38.3997C43.2793 38.3997 44 39.1061 44 39.9776C44 40.7765 43.3944 41.4367 42.6087 41.5412L42.3902 41.5556H25.5958C24.7067 41.5556 23.986 40.8491 23.986 39.9776C23.986 39.1787 24.5916 38.5185 25.3773 38.4141L25.5958 38.3997H42.3902ZM26.0559 2.24062C29.1036 -0.746874 34.0468 -0.746874 37.0945 2.24062L40.2585 5.34208C43.3062 8.32957 43.3062 13.1752 40.2585 16.1627L16.477 39.4743C15.1172 40.8073 13.2735 41.5553 11.3491 41.5553H1.60977C0.705014 41.5553 -0.0220372 40.8246 0.000510641 39.938L0.245499 30.3049C0.294207 28.4842 1.05422 26.7484 2.36785 25.4607L26.0559 2.24062ZM24.2147 8.50422L4.64439 27.6923C3.91419 28.408 3.49101 29.3746 3.46396 30.3856L3.25954 38.3983L11.3491 38.3994C12.301 38.3994 13.2164 38.0709 13.9389 37.4776L14.2005 37.2428L33.8678 17.9642L24.2147 8.50422ZM34.818 4.47219C33.0276 2.71715 30.1228 2.71715 28.3324 4.47219L26.4929 6.27244L36.1436 15.7324L37.982 13.9311C39.6729 12.2736 39.7668 9.64169 38.2638 7.87589L37.982 7.57365L34.818 4.47219Z" fill="#F39800"/>
</svg>