<svg width="12" height="12" viewBox="0 0 12 12" fill="none" xmlns="http://www.w3.org/2000/svg">
<g id="Vector">
<path id="Vector-48" d="M1 5.25C0.585786 5.25 0.25 5.58579 0.25 6C0.25 6.41421 0.585786 6.75 1 6.75V5.25ZM6 6.75C6.41421 6.75 6.75 6.41421 6.75 6C6.75 5.58579 6.41421 5.25 6 5.25V6.75ZM6 5.25C5.58579 5.25 5.25 5.58579 5.25 6C5.25 6.41421 5.58579 6.75 6 6.75V5.25ZM11 6.75C11.4142 6.75 11.75 6.41421 11.75 6C11.75 5.58579 11.4142 5.25 11 5.25V6.75ZM6.75 6C6.75 5.58579 6.41421 5.25 6 5.25C5.58579 5.25 5.25 5.58579 5.25 6H6.75ZM5.25 11C5.25 11.4142 5.58579 11.75 6 11.75C6.41421 11.75 6.75 11.4142 6.75 11H5.25ZM5.25 6C5.25 6.41421 5.58579 6.75 6 6.75C6.41421 6.75 6.75 6.41421 6.75 6H5.25ZM6.75 1C6.75 0.585786 6.41421 0.25 6 0.25C5.58579 0.25 5.25 0.585786 5.25 1H6.75ZM1 6.75H6V5.25H1V6.75ZM6 6.75H11V5.25H6V6.75ZM6 6H5.25C5.25 6 5.25 6 5.25 6C5.25 6 5.25 6 5.25 6C5.25 6 5.25 6 5.25 6C5.25 6 5.25 6 5.25 6C5.25 6.00001 5.25 6.00001 5.25 6.00001C5.25 6.00001 5.25 6.00001 5.25 6.00001C5.25 6.00001 5.25 6.00002 5.25 6.00002C5.25 6.00002 5.25 6.00002 5.25 6.00003C5.25 6.00003 5.25 6.00003 5.25 6.00004C5.25 6.00004 5.25 6.00005 5.25 6.00005C5.25 6.00005 5.25 6.00006 5.25 6.00006C5.25 6.00007 5.25 6.00008 5.25 6.00008C5.25 6.00009 5.25 6.00009 5.25 6.0001C5.25 6.00011 5.25 6.00012 5.25 6.00013C5.25 6.00013 5.25 6.00014 5.25 6.00015C5.25 6.00016 5.25 6.00017 5.25 6.00018C5.25 6.00019 5.25 6.00021 5.25 6.00022C5.25 6.00023 5.25 6.00024 5.25 6.00026C5.25 6.00027 5.25 6.00028 5.25 6.0003C5.25 6.00031 5.25 6.00033 5.25 6.00035C5.25 6.00036 5.25 6.00038 5.25 6.0004C5.25 6.00041 5.25 6.00043 5.25 6.00045C5.25 6.00047 5.25 6.00049 5.25 6.00051C5.25 6.00054 5.25 6.00056 5.25 6.00058C5.25 6.00061 5.25 6.00063 5.25 6.00065C5.25 6.00068 5.25 6.00071 5.25 6.00073C5.25 6.00076 5.25 6.00079 5.25 6.00082C5.25 6.00085 5.25 6.00088 5.25 6.00091C5.25 6.00094 5.25 6.00097 5.25 6.00101C5.25 6.00104 5.25 6.00107 5.25 6.00111C5.25 6.00115 5.25 6.00118 5.25 6.00122C5.25 6.00126 5.25 6.0013 5.25 6.00134C5.25 6.00138 5.25 6.00142 5.25 6.00146C5.25 6.00151 5.25 6.00155 5.25 6.0016C5.25 6.00164 5.25 6.00169 5.25 6.00174C5.25 6.00179 5.25 6.00184 5.25 6.00189C5.25 6.00194 5.25 6.00199 5.25 6.00204C5.25 6.0021 5.25 6.00215 5.25 6.00221C5.25 6.00227 5.25 6.00232 5.25 6.00238C5.25 6.00244 5.25 6.0025 5.25 6.00257C5.25 6.00263 5.25 6.00269 5.25 6.00276C5.25 6.00283 5.25 6.00289 5.25 6.00296C5.25 6.00303 5.25 6.0031 5.25 6.00317C5.25 6.00325 5.25 6.00332 5.25 6.00339C5.25 6.00347 5.25 6.00355 5.25 6.00363C5.25 6.00371 5.25 6.00379 5.25 6.00387C5.25 6.00395 5.25 6.00403 5.25 6.00412C5.25 6.00421 5.25 6.00429 5.25 6.00438C5.25 6.00447 5.25 6.00456 5.25 6.00466C5.25 6.00475 5.25 6.00484 5.25 6.00494C5.25 6.00504 5.25 6.00514 5.25 6.00524C5.25 6.00534 5.25 6.00544 5.25 6.00555C5.25 6.00565 5.25 6.00576 5.25 6.00587C5.25 6.00597 5.25 6.00609 5.25 6.0062C5.25 6.00631 5.25 6.00643 5.25 6.00654C5.25 6.00666 5.25 6.00678 5.25 6.0069C5.25 6.00702 5.25 6.00714 5.25 6.00727C5.25 6.00739 5.25 6.00752 5.25 6.00765C5.25 6.00778 5.25 6.00791 5.25 6.00805C5.25 6.00818 5.25 6.00832 5.25 6.00846C5.25 6.00859 5.25 6.00874 5.25 6.00888C5.25 6.00902 5.25 6.00917 5.25 6.00932C5.25 6.00946 5.25 6.00961 5.25 6.00977C5.25 6.00992 5.25 6.01007 5.25 6.01023C5.25 6.01039 5.25 6.01055 5.25 6.01071C5.25 6.01087 5.25 6.01104 5.25 6.0112C5.25 6.01137 5.25 6.01154 5.25 6.01171C5.25 6.01189 5.25 6.01206 5.25 6.01224C5.25 6.01242 5.25 6.0126 5.25 6.01278C5.25 6.01296 5.25 6.01315 5.25 6.01333C5.25 6.01352 5.25 6.01371 5.25 6.0139C5.25 6.0141 5.25 6.01429 5.25 6.01449C5.25 6.01469 5.25 6.01489 5.25 6.0151C5.25 6.0153 5.25 6.01551 5.25 6.01572C5.25 6.01593 5.25 6.01614 5.25 6.01635C5.25 6.01657 5.25 6.01679 5.25 6.01701C5.25 6.01723 5.25 6.01745 5.25 6.01768C5.25 6.01791 5.25 6.01813 5.25 6.01837C5.25 6.0186 5.25 6.01884 5.25 6.01907C5.25 6.01931 5.25 6.01955 5.25 6.0198C5.25 6.02004 5.25 6.02029 5.25 6.02054C5.25 6.02079 5.25 6.02104 5.25 6.0213C5.25 6.02156 5.25 6.02182 5.25 6.02208C5.25 6.02234 5.25 6.02261 5.25 6.02288C5.25 6.02315 5.25 6.02342 5.25 6.02369C5.25 6.02397 5.25 6.02425 5.25 6.02453C5.25 6.02481 5.25 6.0251 5.25 6.02539C5.25 6.02568 5.25 6.02597 5.25 6.02626C5.25 6.02656 5.25 6.02686 5.25 6.02716C5.25 6.02746 5.25 6.02776 5.25 6.02807C5.25 6.02838 5.25 6.02869 5.25 6.02901C5.25 6.02932 5.25 6.02964 5.25 6.02996C5.25 6.03029 5.25 6.03061 5.25 6.03094C5.25 6.03127 5.25 6.0316 5.25 6.03194C5.25 6.03228 5.25 6.03262 5.25 6.03296C5.25 6.0333 5.25 6.03365 5.25 6.034C5.25 6.03435 5.25 6.0347 5.25 6.03506C5.25 6.03542 5.25 6.03578 5.25 6.03615C5.25 6.03651 5.25 6.03688 5.25 6.03725C5.25 6.03763 5.25 6.038 5.25 6.03838C5.25 6.03876 5.25 6.03915 5.25 6.03953C5.25 6.03992 5.25 6.04031 5.25 6.04071C5.25 6.0411 5.25 6.0415 5.25 6.0419C5.25 6.04231 5.25 6.04271 5.25 6.04312C5.25 6.04354 5.25 6.04395 5.25 6.04437C5.25 6.04479 5.25 6.04521 5.25 6.04564C5.25 6.04606 5.25 6.04649 5.25 6.04693C5.25 6.04736 5.25 6.0478 5.25 6.04824C5.25 6.04869 5.25 6.04913 5.25 6.04958C5.25 6.05003 5.25 6.05049 5.25 6.05095C5.25 6.05141 5.25 6.05187 5.25 6.05234C5.25 6.0528 5.25 6.05328 5.25 6.05375C5.25 6.05423 5.25 6.05471 5.25 6.05519C5.25 6.05568 5.25 6.05616 5.25 6.05666C5.25 6.05715 5.25 6.05765 5.25 6.05815C5.25 6.05865 5.25 6.05915 5.25 6.05966C5.25 6.06017 5.25 6.06069 5.25 6.06121C5.25 6.06173 5.25 6.06225 5.25 6.06278C5.25 6.0633 5.25 6.06384 5.25 6.06437C5.25 6.06491 5.25 6.06545 5.25 6.066C5.25 6.06654 5.25 6.06709 5.25 6.06765C5.25 6.0682 5.25 6.06876 5.25 6.06932C5.25 6.06989 5.25 6.07045 5.25 6.07103C5.25 6.0716 5.25 6.07218 5.25 6.07276C5.25 6.07334 5.25 6.07393 5.25 6.07452C5.25 6.07511 5.25 6.07571 5.25 6.07631C5.25 6.07691 5.25 6.07751 5.25 6.07812C5.25 6.07874 5.25 6.07935 5.25 6.07997C5.25 6.08059 5.25 6.08121 5.25 6.08184C5.25 6.08247 5.25 6.08311 5.25 6.08375C5.25 6.08439 5.25 6.08503 5.25 6.08568C5.25 6.08633 5.25 6.08698 5.25 6.08764C5.25 6.0883 5.25 6.08897 5.25 6.08963C5.25 6.0903 5.25 6.09098 5.25 6.09166C5.25 6.09234 5.25 6.09302 5.25 6.09371C5.25 6.0944 5.25 6.09509 5.25 6.09579C5.25 6.09649 5.25 6.09719 5.25 6.0979C5.25 6.09861 5.25 6.09933 5.25 6.10005C5.25 6.10077 5.25 6.10149 5.25 6.10222C5.25 6.10295 5.25 6.10369 5.25 6.10443C5.25 6.10517 5.25 6.10591 5.25 6.10667C5.25 6.10742 5.25 6.10817 5.25 6.10894C5.25 6.1097 5.25 6.11046 5.25 6.11124C5.25 6.11201 5.25 6.11279 5.25 6.11357C5.25 6.11435 5.25 6.11514 5.25 6.11594C5.25 6.11673 5.25 6.11753 5.25 6.11833C5.25 6.11914 5.25 6.11995 5.25 6.12077C5.25 6.12158 5.25 6.1224 5.25 6.12323C5.25 6.12406 5.25 6.12489 5.25 6.12573C5.25 6.12657 5.25 6.12741 5.25 6.12826C5.25 6.12911 5.25 6.12996 5.25 6.13083C5.25 6.13169 5.25 6.13255 5.25 6.13342C5.25 6.1343 5.25 6.13517 5.25 6.13606C5.25 6.13694 5.25 6.13783 5.25 6.13873C5.25 6.13962 5.25 6.14052 5.25 6.14143C5.25 6.14233 5.25 6.14325 5.25 6.14416C5.25 6.14508 5.25 6.14601 5.25 6.14694C5.25 6.14787 5.25 6.1488 5.25 6.14974C5.25 6.15069 5.25 6.15163 5.25 6.15259C5.25 6.15354 5.25 6.1545 5.25 6.15547C5.25 6.15643 5.25 6.1574 5.25 6.15838C5.25 6.15936 5.25 6.16034 5.25 6.16133C5.25 6.16232 5.25 6.16332 5.25 6.16432C5.25 6.16532 5.25 6.16633 5.25 6.16734C5.25 6.16836 5.25 6.16938 5.25 6.17041C5.25 6.17143 5.25 6.17246 5.25 6.1735C5.25 6.17454 5.25 6.17559 5.25 6.17664C5.25 6.17769 5.25 6.17875 5.25 6.17981C5.25 6.18088 5.25 6.18195 5.25 6.18302C5.25 6.1841 5.25 6.18518 5.25 6.18627C5.25 6.18736 5.25 6.18846 5.25 6.18956C5.25 6.19066 5.25 6.19177 5.25 6.19288C5.25 6.194 5.25 6.19512 5.25 6.19625C5.25 6.19738 5.25 6.19851 5.25 6.19965C5.25 6.20079 5.25 6.20194 5.25 6.20309C5.25 6.20425 5.25 6.20541 5.25 6.20658C5.25 6.20774 5.25 6.20892 5.25 6.2101C5.25 6.21128 5.25 6.21246 5.25 6.21366C5.25 6.21485 5.25 6.21605 5.25 6.21726C5.25 6.21847 5.25 6.21968 5.25 6.2209C5.25 6.22212 5.25 6.22335 5.25 6.22458C5.25 6.22582 5.25 6.22706 5.25 6.2283C5.25 6.22955 5.25 6.23081 5.25 6.23207C5.25 6.23333 5.25 6.2346 5.25 6.23587C5.25 6.23715 5.25 6.23843 5.25 6.23972C5.25 6.24101 5.25 6.2423 5.25 6.2436C5.25 6.24491 5.25 6.24622 5.25 6.24753C5.25 6.24885 5.25 6.25017 5.25 6.2515C5.25 6.25284 5.25 6.25417 5.25 6.25552C5.25 6.25686 5.25 6.25821 5.25 6.25957C5.25 6.26093 5.25 6.2623 5.25 6.26367C5.25 6.26505 5.25 6.26643 5.25 6.26781C5.25 6.2692 5.25 6.2706 5.25 6.272C5.25 6.2734 5.25 6.27481 5.25 6.27623C5.25 6.27764 5.25 6.27907 5.25 6.2805C5.25 6.28193 5.25 6.28337 5.25 6.28481C5.25 6.28626 5.25 6.28771 5.25 6.28917C5.25 6.29063 5.25 6.2921 5.25 6.29358C5.25 6.29505 5.25 6.29653 5.25 6.29802C5.25 6.29951 5.25 6.30101 5.25 6.30252C5.25 6.30402 5.25 6.30553 5.25 6.30705C5.25 6.30857 5.25 6.3101 5.25 6.31164C5.25 6.31317 5.25 6.31471 5.25 6.31626C5.25 6.31781 5.25 6.31937 5.25 6.32094C5.25 6.3225 5.25 6.32408 5.25 6.32566C5.25 6.32724 5.25 6.32883 5.25 6.33042C5.25 6.33202 5.25 6.33362 5.25 6.33524C5.25 6.33685 5.25 6.33847 5.25 6.34009C5.25 6.34172 5.25 6.34336 5.25 6.345C5.25 6.34664 5.25 6.34829 5.25 6.34995C5.25 6.35161 5.25 6.35328 5.25 6.35495C5.25 6.35662 5.25 6.35831 5.25 6.36C5.25 6.36169 5.25 6.36339 5.25 6.36509C5.25 6.3668 5.25 6.36851 5.25 6.37023C5.25 6.37196 5.25 6.37369 5.25 6.37542C5.25 6.37716 5.25 6.37891 5.25 6.38066C5.25 6.38242 5.25 6.38418 5.25 6.38595C5.25 6.38772 5.25 6.3895 5.25 6.39128C5.25 6.39307 5.25 6.39487 5.25 6.39667C5.25 6.39847 5.25 6.40028 5.25 6.4021C5.25 6.40392 5.25 6.40575 5.25 6.40759C5.25 6.40942 5.25 6.41127 5.25 6.41312C5.25 6.41497 5.25 6.41683 5.25 6.4187C5.25 6.42057 5.25 6.42245 5.25 6.42433C5.25 6.42622 5.25 6.42811 5.25 6.43002C5.25 6.43192 5.25 6.43383 5.25 6.43575C5.25 6.43767 5.25 6.4396 5.25 6.44153C5.25 6.44347 5.25 6.44542 5.25 6.44737C5.25 6.44932 5.25 6.45129 5.25 6.45326C5.25 6.45523 5.25 6.45721 5.25 6.45919C5.25 6.46118 5.25 6.46318 5.25 6.46518C5.25 6.46719 5.25 6.4692 5.25 6.47122C5.25 6.47325 5.25 6.47528 5.25 6.47732C5.25 6.47936 5.25 6.48141 5.25 6.48346C5.25 6.48552 5.25 6.48759 5.25 6.48966C5.25 6.49174 5.25 6.49382 5.25 6.49591C5.25 6.498 5.25 6.50011 5.25 6.50222C5.25 6.50433 5.25 6.50645 5.25 6.50857C5.25 6.5107 5.25 6.51284 5.25 6.51498C5.25 6.51713 5.25 6.51928 5.25 6.52145C5.25 6.52361 5.25 6.52578 5.25 6.52797C5.25 6.53015 5.25 6.53234 5.25 6.53454C5.25 6.53674 5.25 6.53895 5.25 6.54116C5.25 6.54338 5.25 6.54561 5.25 6.54785C5.25 6.55008 5.25 6.55233 5.25 6.55458C5.25 6.55684 5.25 6.5591 5.25 6.56137C5.25 6.56364 5.25 6.56593 5.25 6.56822C5.25 6.57051 5.25 6.57281 5.25 6.57512C5.25 6.57743 5.25 6.57975 5.25 6.58208C5.25 6.5844 5.25 6.58674 5.25 6.58909C5.25 6.59144 5.25 6.59379 5.25 6.59616C5.25 6.59852 5.25 6.6009 5.25 6.60328C5.25 6.60567 5.25 6.60806 5.25 6.61047C5.25 6.61287 5.25 6.61528 5.25 6.6177C5.25 6.62013 5.25 6.62256 5.25 6.625C5.25 6.62744 5.25 6.62989 5.25 6.63235C5.25 6.63481 5.25 6.63728 5.25 6.63976C5.25 6.64224 5.25 6.64473 5.25 6.64723C5.25 6.64973 5.25 6.65224 5.25 6.65476C5.25 6.65728 5.25 6.6598 5.25 6.66234C5.25 6.66488 5.25 6.66743 5.25 6.66998C5.25 6.67254 5.25 6.67511 5.25 6.67768C5.25 6.68026 5.25 6.68285 5.25 6.68544C5.25 6.68804 5.25 6.69065 5.25 6.69326C5.25 6.69588 5.25 6.6985 5.25 6.70114C5.25 6.70378 5.25 6.70642 5.25 6.70908C5.25 6.71173 5.25 6.7144 5.25 6.71707C5.25 6.71975 5.25 6.72244 5.25 6.72513C5.25 6.72783 5.25 6.73053 5.25 6.73325C5.25 6.73596 5.25 6.73869 5.25 6.74143C5.25 6.74416 5.25 6.74691 5.25 6.74966C5.25 6.75242 5.25 6.75519 5.25 6.75796C5.25 6.76074 5.25 6.76353 5.25 6.76632C5.25 6.76912 5.25 6.77193 5.25 6.77474C5.25 6.77756 5.25 6.78039 5.25 6.78323C5.25 6.78606 5.25 6.78891 5.25 6.79177C5.25 6.79463 5.25 6.7975 5.25 6.80038C5.25 6.80326 5.25 6.80615 5.25 6.80905C5.25 6.81194 5.25 6.81486 5.25 6.81778C5.25 6.8207 5.25 6.82363 5.25 6.82657C5.25 6.82951 5.25 6.83246 5.25 6.83542C5.25 6.83839 5.25 6.84136 5.25 6.84434C5.25 6.84733 5.25 6.85032 5.25 6.85333C5.25 6.85633 5.25 6.85935 5.25 6.86237C5.25 6.8654 5.25 6.86843 5.25 6.87148C5.25 6.87453 5.25 6.87759 5.25 6.88065C5.25 6.88372 5.25 6.8868 5.25 6.88989C5.25 6.89298 5.25 6.89608 5.25 6.89919C5.25 6.90231 5.25 6.90543 5.25 6.90856C5.25 6.91169 5.25 6.91484 5.25 6.91799C5.25 6.92115 5.25 6.92431 5.25 6.92749C5.25 6.93067 5.25 6.93385 5.25 6.93705C5.25 6.94025 5.25 6.94346 5.25 6.94668C5.25 6.9499 5.25 6.95313 5.25 6.95637C5.25 6.95961 5.25 6.96287 5.25 6.96613C5.25 6.96939 5.25 6.97267 5.25 6.97595C5.25 6.97924 5.25 6.98254 5.25 6.98585C5.25 6.98915 5.25 6.99247 5.25 6.9958C5.25 6.99913 5.25 7.00248 5.25 7.00583C5.25 7.00918 5.25 7.01255 5.25 7.01592C5.25 7.0193 5.25 7.02268 5.25 7.02608C5.25 7.02948 5.25 7.03289 5.25 7.03631C5.25 7.03973 5.25 7.04316 5.25 7.0466C5.25 7.05004 5.25 7.0535 5.25 7.05696C5.25 7.06043 5.25 7.0639 5.25 7.06739C5.25 7.07088 5.25 7.07438 5.25 7.07789C5.25 7.0814 5.25 7.08493 5.25 7.08846C5.25 7.09199 5.25 7.09554 5.25 7.0991C5.25 7.10265 5.25 7.10622 5.25 7.1098C5.25 7.11338 5.25 7.11697 5.25 7.12058C5.25 7.12418 5.25 7.12779 5.25 7.13142C5.25 7.13505 5.25 7.13868 5.25 7.14233C5.25 7.14598 5.25 7.14964 5.25 7.15332C5.25 7.15699 5.25 7.16068 5.25 7.16437C5.25 7.16807 5.25 7.17178 5.25 7.1755C5.25 7.17922 5.25 7.18295 5.25 7.18669C5.25 7.19044 5.25 7.19419 5.25 7.19796C5.25 7.20173 5.25 7.2055 5.25 7.20929C5.25 7.21309 5.25 7.21689 5.25 7.2207C5.25 7.22452 5.25 7.22834 5.25 7.23218C5.25 7.23602 5.25 7.23987 5.25 7.24373C5.25 7.2476 5.25 7.25147 5.25 7.25536C5.25 7.25924 5.25 7.26314 5.25 7.26705C5.25 7.27096 5.25 7.27489 5.25 7.27882C5.25 7.28276 5.25 7.2867 5.25 7.29066C5.25 7.29462 5.25 7.29859 5.25 7.30258C5.25 7.30656 5.25 7.31056 5.25 7.31456C5.25 7.31857 5.25 7.32259 5.25 7.32662C5.25 7.33066 5.25 7.3347 5.25 7.33876C5.25 7.34281 5.25 7.34688 5.25 7.35097C5.25 7.35505 5.25 7.35914 5.25 7.36325C5.25 7.36735 5.25 7.37147 5.25 7.3756C5.25 7.37973 5.25 7.38388 5.25 7.38803C5.25 7.39219 5.25 7.39636 5.25 7.40054C5.25 7.40472 5.25 7.40891 5.25 7.41312C5.25 7.41732 5.25 7.42154 5.25 7.42577C5.25 7.43 5.25 7.43425 5.25 7.4385C5.25 7.44276 5.25 7.44703 5.25 7.45131C5.25 7.45559 5.25 7.45988 5.25 7.46419C5.25 7.46849 5.25 7.47281 5.25 7.47715C5.25 7.48148 5.25 7.48582 5.25 7.49018C5.25 7.49454 5.25 7.49891 5.25 7.50329C5.25 7.50767 5.25 7.51207 5.25 7.51648C5.25 7.52088 5.25 7.52531 5.25 7.52974C5.25 7.53417 5.25 7.53862 5.25 7.54308C5.25 7.54754 5.25 7.55201 5.25 7.5565C5.25 7.56098 5.25 7.56548 5.25 7.56999C5.25 7.5745 5.25 7.57903 5.25 7.58357C5.25 7.5881 5.25 7.59265 5.25 7.59722C5.25 7.60178 5.25 7.60636 5.25 7.61095C5.25 7.61554 5.25 7.62014 5.25 7.62476C5.25 7.62937 5.25 7.634 5.25 7.63864C5.25 7.64328 5.25 7.64794 5.25 7.65261C5.25 7.65728 5.25 7.66196 5.25 7.66665C5.25 7.67135 5.25 7.67606 5.25 7.68078C5.25 7.6855 5.25 7.69023 5.25 7.69498C5.25 7.69973 5.25 7.70449 5.25 7.70926C5.25 7.71404 5.25 7.71883 5.25 7.72363C5.25 7.72843 5.25 7.73324 5.25 7.73807C5.25 7.7429 5.25 7.74774 5.25 7.7526C5.25 7.75745 5.25 7.76232 5.25 7.7672C5.25 7.77208 5.25 7.77698 5.25 7.78189C5.25 7.7868 5.25 7.79172 5.25 7.79665C5.25 7.80159 5.25 7.80654 5.25 7.8115C5.25 7.81646 5.25 7.82144 5.25 7.82643C5.25 7.83142 5.25 7.83643 5.25 7.84144C5.25 7.84646 5.25 7.85149 5.25 7.85654C5.25 7.86158 5.25 7.86664 5.25 7.87171C5.25 7.87679 5.25 7.88187 5.25 7.88697C5.25 7.89207 5.25 7.89718 5.25 7.90231C5.25 7.90744 5.25 7.91258 5.25 7.91774C5.25 7.92289 5.25 7.92806 5.25 7.93324C5.25 7.93843 5.25 7.94362 5.25 7.94883C5.25 7.95405 5.25 7.95927 5.25 7.96451C5.25 7.96975 5.25 7.975 5.25 7.98027C5.25 7.98553 5.25 7.99081 5.25 7.99611C5.25 8.0014 5.25 8.00671 5.25 8.01203C5.25 8.01736 5.25 8.02269 5.25 8.02805C5.25 8.0334 5.25 8.03876 5.25 8.04414C5.25 8.04952 5.25 8.05491 5.25 8.06032C5.25 8.06573 5.25 8.07115 5.25 8.07659C5.25 8.08202 5.25 8.08747 5.25 8.09294C5.25 8.0984 5.25 8.10388 5.25 8.10938C5.25 8.11487 5.25 8.12038 5.25 8.1259C5.25 8.13142 5.25 8.13696 5.25 8.14251C5.25 8.14806 5.25 8.15362 5.25 8.1592C5.25 8.16478 5.25 8.17037 5.25 8.17598C5.25 8.18159 5.25 8.18721 5.25 8.19285C5.25 8.19849 5.25 8.20414 5.25 8.20981C5.25 8.21547 5.25 8.22115 5.25 8.22685C5.25 8.23254 5.25 8.23825 5.25 8.24398C5.25 8.2497 5.25 8.25544 5.25 8.26119C5.25 8.26695 5.25 8.27272 5.25 8.2785C5.25 8.28428 5.25 8.29008 5.25 8.29589C5.25 8.3017 5.25 8.30753 5.25 8.31337C5.25 8.31921 5.25 8.32507 5.25 8.33094C5.25 8.33681 5.25 8.3427 5.25 8.3486C5.25 8.3545 5.25 8.36042 5.25 8.36635C5.25 8.37228 5.25 8.37823 5.25 8.38419C5.25 8.39015 5.25 8.39612 5.25 8.40211C5.25 8.4081 5.25 8.41411 5.25 8.42013C5.25 8.42615 5.25 8.43218 5.25 8.43823C5.25 8.44428 5.25 8.45035 5.25 8.45643C5.25 8.46251 5.25 8.4686 5.25 8.47472C5.25 8.48083 5.25 8.48695 5.25 8.49309C5.25 8.49923 5.25 8.50539 5.25 8.51156C5.25 8.51773 5.25 8.52392 5.25 8.53012C5.25 8.53632 5.25 8.54253 5.25 8.54877C5.25 8.555 5.25 8.56124 5.25 8.56751C5.25 8.57377 5.25 8.58005 5.25 8.58634C5.25 8.59263 5.25 8.59894 5.25 8.60526C5.25 8.61159 5.25 8.61793 5.25 8.62428C5.25 8.63063 5.25 8.637 5.25 8.64339C5.25 8.64977 5.25 8.65617 5.25 8.66259C5.25 8.66901 5.25 8.67544 5.25 8.68188C5.25 8.68833 5.25 8.69479 5.25 8.70127C5.25 8.70775 5.25 8.71424 5.25 8.72075C5.25 8.72726 5.25 8.73379 5.25 8.74033C5.25 8.74687 5.25 8.75342 5.25 8.75999C5.25 8.76656 5.25 8.77315 5.25 8.77975C5.25 8.78636 5.25 8.79298 5.25 8.79961C5.25 8.80624 5.25 8.81289 5.25 8.81956C5.25 8.82622 5.25 8.83291 5.25 8.8396C5.25 8.8463 5.25 8.85301 5.25 8.85974C5.25 8.86647 5.25 8.87322 5.25 8.87998C5.25 8.88674 5.25 8.89351 5.25 8.90031C5.25 8.9071 5.25 8.91391 5.25 8.92073C5.25 8.92755 5.25 8.93439 5.25 8.94125C5.25 8.94811 5.25 8.95498 5.25 8.96187C5.25 8.96875 5.25 8.97566 5.25 8.98258C5.25 8.9895 5.25 8.99644 5.25 9.00339C5.25 9.01034 5.25 9.01731 5.25 9.02429C5.25 9.03128 5.25 9.03828 5.25 9.04529C5.25 9.05231 5.25 9.05934 5.25 9.06639C5.25 9.07344 5.25 9.08051 5.25 9.08759C5.25 9.09467 5.25 9.10177 5.25 9.10888C5.25 9.116 5.25 9.12313 5.25 9.13027C5.25 9.13742 5.25 9.14458 5.25 9.15176C5.25 9.15894 5.25 9.16614 5.25 9.17335C5.25 9.18056 5.25 9.18779 5.25 9.19504C5.25 9.20228 5.25 9.20954 5.25 9.21682C5.25 9.2241 5.25 9.23139 5.25 9.2387C5.25 9.24602 5.25 9.25334 5.25 9.26069C5.25 9.26803 5.25 9.27539 5.25 9.28277C5.25 9.29014 5.25 9.29754 5.25 9.30495C5.25 9.31236 5.25 9.31979 5.25 9.32723C5.25 9.33467 5.25 9.34213 5.25 9.34961C5.25 9.35709 5.25 9.36458 5.25 9.37209C5.25 9.3796 5.25 9.38713 5.25 9.39467C5.25 9.40221 5.25 9.40977 5.25 9.41735C5.25 9.42493 5.25 9.43252 5.25 9.44013C5.25 9.44775 5.25 9.45537 5.25 9.46302C5.25 9.47066 5.25 9.47832 5.25 9.486C5.25 9.49368 5.25 9.50138 5.25 9.50909C5.25 9.5168 5.25 9.52453 5.25 9.53228C5.25 9.54002 5.25 9.54779 5.25 9.55557C5.25 9.56335 5.25 9.57114 5.25 9.57896C5.25 9.58677 5.25 9.5946 5.25 9.60245C5.25 9.6103 5.25 9.61817 5.25 9.62605C5.25 9.63393 5.25 9.64183 5.25 9.64975C5.25 9.65767 5.25 9.6656 5.25 9.67355C5.25 9.6815 5.25 9.68947 5.25 9.69746C5.25 9.70544 5.25 9.71345 5.25 9.72147C5.25 9.72949 5.25 9.73752 5.25 9.74558C5.25 9.75363 5.25 9.76171 5.25 9.7698C5.25 9.77789 5.25 9.78599 5.25 9.79412C5.25 9.80224 5.25 9.81038 5.25 9.81854C5.25 9.8267 5.25 9.83488 5.25 9.84307C5.25 9.85127 5.25 9.85948 5.25 9.86771C5.25 9.87594 5.25 9.88418 5.25 9.89245C5.25 9.90071 5.25 9.90899 5.25 9.91729C5.25 9.92559 5.25 9.93391 5.25 9.94224C5.25 9.95058 5.25 9.95893 5.25 9.9673C5.25 9.97567 5.25 9.98406 5.25 9.99246C5.25 10.0009 5.25 10.0093 5.25 10.0177C5.25 10.0262 5.25 10.0346 5.25 10.0431C5.25 10.0516 5.25 10.0601 5.25 10.0686C5.25 10.0771 5.25 10.0856 5.25 10.0942C5.25 10.1027 5.25 10.1113 5.25 10.1199C5.25 10.1285 5.25 10.1371 5.25 10.1457C5.25 10.1543 5.25 10.1629 5.25 10.1716C5.25 10.1802 5.25 10.1889 5.25 10.1976C5.25 10.2063 5.25 10.215 5.25 10.2237C5.25 10.2325 5.25 10.2412 5.25 10.25C5.25 10.2587 5.25 10.2675 5.25 10.2763C5.25 10.2851 5.25 10.2939 5.25 10.3028C5.25 10.3116 5.25 10.3204 5.25 10.3293C5.25 10.3382 5.25 10.3471 5.25 10.356C5.25 10.3649 5.25 10.3738 5.25 10.3828C5.25 10.3917 5.25 10.4007 5.25 10.4097C5.25 10.4186 5.25 10.4276 5.25 10.4367C5.25 10.4457 5.25 10.4547 5.25 10.4638C5.25 10.4728 5.25 10.4819 5.25 10.491C5.25 10.5001 5.25 10.5092 5.25 10.5183C5.25 10.5274 5.25 10.5366 5.25 10.5457C5.25 10.5549 5.25 10.5641 5.25 10.5733C5.25 10.5825 5.25 10.5917 5.25 10.601C5.25 10.6102 5.25 10.6195 5.25 10.6287C5.25 10.638 5.25 10.6473 5.25 10.6566C5.25 10.6659 5.25 10.6753 5.25 10.6846C5.25 10.694 5.25 10.7033 5.25 10.7127C5.25 10.7221 5.25 10.7315 5.25 10.7409C5.25 10.7504 5.25 10.7598 5.25 10.7693C5.25 10.7787 5.25 10.7882 5.25 10.7977C5.25 10.8072 5.25 10.8167 5.25 10.8263C5.25 10.8358 5.25 10.8454 5.25 10.8549C5.25 10.8645 5.25 10.8741 5.25 10.8837C5.25 10.8933 5.25 10.903 5.25 10.9126C5.25 10.9223 5.25 10.9319 5.25 10.9416C5.25 10.9513 5.25 10.961 5.25 10.9708C5.25 10.9805 5.25 10.9902 5.25 11H6.75C6.75 10.9902 6.75 10.9805 6.75 10.9708C6.75 10.961 6.75 10.9513 6.75 10.9416C6.75 10.9319 6.75 10.9223 6.75 10.9126C6.75 10.903 6.75 10.8933 6.75 10.8837C6.75 10.8741 6.75 10.8645 6.75 10.8549C6.75 10.8454 6.75 10.8358 6.75 10.8263C6.75 10.8167 6.75 10.8072 6.75 10.7977C6.75 10.7882 6.75 10.7787 6.75 10.7693C6.75 10.7598 6.75 10.7504 6.75 10.7409C6.75 10.7315 6.75 10.7221 6.75 10.7127C6.75 10.7033 6.75 10.694 6.75 10.6846C6.75 10.6753 6.75 10.6659 6.75 10.6566C6.75 10.6473 6.75 10.638 6.75 10.6287C6.75 10.6195 6.75 10.6102 6.75 10.601C6.75 10.5917 6.75 10.5825 6.75 10.5733C6.75 10.5641 6.75 10.5549 6.75 10.5457C6.75 10.5366 6.75 10.5274 6.75 10.5183C6.75 10.5092 6.75 10.5001 6.75 10.491C6.75 10.4819 6.75 10.4728 6.75 10.4638C6.75 10.4547 6.75 10.4457 6.75 10.4367C6.75 10.4276 6.75 10.4186 6.75 10.4097C6.75 10.4007 6.75 10.3917 6.75 10.3828C6.75 10.3738 6.75 10.3649 6.75 10.356C6.75 10.3471 6.75 10.3382 6.75 10.3293C6.75 10.3204 6.75 10.3116 6.75 10.3028C6.75 10.2939 6.75 10.2851 6.75 10.2763C6.75 10.2675 6.75 10.2587 6.75 10.25C6.75 10.2412 6.75 10.2325 6.75 10.2237C6.75 10.215 6.75 10.2063 6.75 10.1976C6.75 10.1889 6.75 10.1802 6.75 10.1716C6.75 10.1629 6.75 10.1543 6.75 10.1457C6.75 10.1371 6.75 10.1285 6.75 10.1199C6.75 10.1113 6.75 10.1027 6.75 10.0942C6.75 10.0856 6.75 10.0771 6.75 10.0686C6.75 10.0601 6.75 10.0516 6.75 10.0431C6.75 10.0346 6.75 10.0262 6.75 10.0177C6.75 10.0093 6.75 10.0009 6.75 9.99246C6.75 9.98406 6.75 9.97567 6.75 9.9673C6.75 9.95893 6.75 9.95058 6.75 9.94224C6.75 9.93391 6.75 9.92559 6.75 9.91729C6.75 9.90899 6.75 9.90071 6.75 9.89245C6.75 9.88418 6.75 9.87594 6.75 9.86771C6.75 9.85948 6.75 9.85127 6.75 9.84307C6.75 9.83488 6.75 9.8267 6.75 9.81854C6.75 9.81038 6.75 9.80224 6.75 9.79412C6.75 9.78599 6.75 9.77789 6.75 9.7698C6.75 9.76171 6.75 9.75363 6.75 9.74558C6.75 9.73752 6.75 9.72949 6.75 9.72147C6.75 9.71345 6.75 9.70544 6.75 9.69746C6.75 9.68947 6.75 9.6815 6.75 9.67355C6.75 9.6656 6.75 9.65767 6.75 9.64975C6.75 9.64183 6.75 9.63393 6.75 9.62605C6.75 9.61817 6.75 9.6103 6.75 9.60245C6.75 9.5946 6.75 9.58677 6.75 9.57896C6.75 9.57114 6.75 9.56335 6.75 9.55557C6.75 9.54779 6.75 9.54002 6.75 9.53228C6.75 9.52453 6.75 9.5168 6.75 9.50909C6.75 9.50138 6.75 9.49368 6.75 9.486C6.75 9.47832 6.75 9.47066 6.75 9.46302C6.75 9.45537 6.75 9.44775 6.75 9.44013C6.75 9.43252 6.75 9.42493 6.75 9.41735C6.75 9.40977 6.75 9.40221 6.75 9.39467C6.75 9.38713 6.75 9.3796 6.75 9.37209C6.75 9.36458 6.75 9.35709 6.75 9.34961C6.75 9.34213 6.75 9.33467 6.75 9.32723C6.75 9.31979 6.75 9.31236 6.75 9.30495C6.75 9.29754 6.75 9.29014 6.75 9.28277C6.75 9.27539 6.75 9.26803 6.75 9.26069C6.75 9.25334 6.75 9.24602 6.75 9.2387C6.75 9.23139 6.75 9.2241 6.75 9.21682C6.75 9.20954 6.75 9.20228 6.75 9.19504C6.75 9.18779 6.75 9.18056 6.75 9.17335C6.75 9.16614 6.75 9.15894 6.75 9.15176C6.75 9.14458 6.75 9.13742 6.75 9.13027C6.75 9.12313 6.75 9.116 6.75 9.10888C6.75 9.10177 6.75 9.09467 6.75 9.08759C6.75 9.08051 6.75 9.07344 6.75 9.06639C6.75 9.05934 6.75 9.05231 6.75 9.04529C6.75 9.03828 6.75 9.03128 6.75 9.02429C6.75 9.01731 6.75 9.01034 6.75 9.00339C6.75 8.99644 6.75 8.9895 6.75 8.98258C6.75 8.97566 6.75 8.96875 6.75 8.96187C6.75 8.95498 6.75 8.94811 6.75 8.94125C6.75 8.93439 6.75 8.92755 6.75 8.92073C6.75 8.91391 6.75 8.9071 6.75 8.90031C6.75 8.89351 6.75 8.88674 6.75 8.87998C6.75 8.87322 6.75 8.86647 6.75 8.85974C6.75 8.85301 6.75 8.8463 6.75 8.8396C6.75 8.83291 6.75 8.82622 6.75 8.81956C6.75 8.81289 6.75 8.80624 6.75 8.79961C6.75 8.79298 6.75 8.78636 6.75 8.77975C6.75 8.77315 6.75 8.76656 6.75 8.75999C6.75 8.75342 6.75 8.74687 6.75 8.74033C6.75 8.73379 6.75 8.72726 6.75 8.72075C6.75 8.71424 6.75 8.70775 6.75 8.70127C6.75 8.69479 6.75 8.68833 6.75 8.68188C6.75 8.67544 6.75 8.66901 6.75 8.66259C6.75 8.65617 6.75 8.64977 6.75 8.64339C6.75 8.637 6.75 8.63063 6.75 8.62428C6.75 8.61793 6.75 8.61159 6.75 8.60526C6.75 8.59894 6.75 8.59263 6.75 8.58634C6.75 8.58005 6.75 8.57377 6.75 8.56751C6.75 8.56124 6.75 8.555 6.75 8.54877C6.75 8.54253 6.75 8.53632 6.75 8.53012C6.75 8.52392 6.75 8.51773 6.75 8.51156C6.75 8.50539 6.75 8.49923 6.75 8.49309C6.75 8.48695 6.75 8.48083 6.75 8.47472C6.75 8.4686 6.75 8.46251 6.75 8.45643C6.75 8.45035 6.75 8.44428 6.75 8.43823C6.75 8.43218 6.75 8.42615 6.75 8.42013C6.75 8.41411 6.75 8.4081 6.75 8.40211C6.75 8.39612 6.75 8.39015 6.75 8.38419C6.75 8.37823 6.75 8.37228 6.75 8.36635C6.75 8.36042 6.75 8.3545 6.75 8.3486C6.75 8.3427 6.75 8.33681 6.75 8.33094C6.75 8.32507 6.75 8.31921 6.75 8.31337C6.75 8.30753 6.75 8.3017 6.75 8.29589C6.75 8.29008 6.75 8.28428 6.75 8.2785C6.75 8.27272 6.75 8.26695 6.75 8.26119C6.75 8.25544 6.75 8.2497 6.75 8.24398C6.75 8.23825 6.75 8.23254 6.75 8.22685C6.75 8.22115 6.75 8.21547 6.75 8.20981C6.75 8.20414 6.75 8.19849 6.75 8.19285C6.75 8.18721 6.75 8.18159 6.75 8.17598C6.75 8.17037 6.75 8.16478 6.75 8.1592C6.75 8.15362 6.75 8.14806 6.75 8.14251C6.75 8.13696 6.75 8.13142 6.75 8.1259C6.75 8.12038 6.75 8.11487 6.75 8.10938C6.75 8.10388 6.75 8.0984 6.75 8.09294C6.75 8.08747 6.75 8.08202 6.75 8.07659C6.75 8.07115 6.75 8.06573 6.75 8.06032C6.75 8.05491 6.75 8.04952 6.75 8.04414C6.75 8.03876 6.75 8.0334 6.75 8.02805C6.75 8.02269 6.75 8.01736 6.75 8.01203C6.75 8.00671 6.75 8.0014 6.75 7.99611C6.75 7.99081 6.75 7.98553 6.75 7.98027C6.75 7.975 6.75 7.96975 6.75 7.96451C6.75 7.95927 6.75 7.95405 6.75 7.94883C6.75 7.94362 6.75 7.93843 6.75 7.93324C6.75 7.92806 6.75 7.92289 6.75 7.91774C6.75 7.91258 6.75 7.90744 6.75 7.90231C6.75 7.89718 6.75 7.89207 6.75 7.88697C6.75 7.88187 6.75 7.87679 6.75 7.87171C6.75 7.86664 6.75 7.86158 6.75 7.85654C6.75 7.85149 6.75 7.84646 6.75 7.84144C6.75 7.83643 6.75 7.83142 6.75 7.82643C6.75 7.82144 6.75 7.81646 6.75 7.8115C6.75 7.80654 6.75 7.80159 6.75 7.79665C6.75 7.79172 6.75 7.7868 6.75 7.78189C6.75 7.77698 6.75 7.77208 6.75 7.7672C6.75 7.76232 6.75 7.75745 6.75 7.7526C6.75 7.74774 6.75 7.7429 6.75 7.73807C6.75 7.73324 6.75 7.72843 6.75 7.72363C6.75 7.71883 6.75 7.71404 6.75 7.70926C6.75 7.70449 6.75 7.69973 6.75 7.69498C6.75 7.69023 6.75 7.6855 6.75 7.68078C6.75 7.67606 6.75 7.67135 6.75 7.66665C6.75 7.66196 6.75 7.65728 6.75 7.65261C6.75 7.64794 6.75 7.64328 6.75 7.63864C6.75 7.634 6.75 7.62937 6.75 7.62476C6.75 7.62014 6.75 7.61554 6.75 7.61095C6.75 7.60636 6.75 7.60178 6.75 7.59722C6.75 7.59265 6.75 7.5881 6.75 7.58357C6.75 7.57903 6.75 7.5745 6.75 7.56999C6.75 7.56548 6.75 7.56098 6.75 7.5565C6.75 7.55201 6.75 7.54754 6.75 7.54308C6.75 7.53862 6.75 7.53417 6.75 7.52974C6.75 7.52531 6.75 7.52088 6.75 7.51648C6.75 7.51207 6.75 7.50767 6.75 7.50329C6.75 7.49891 6.75 7.49454 6.75 7.49018C6.75 7.48582 6.75 7.48148 6.75 7.47715C6.75 7.47281 6.75 7.46849 6.75 7.46419C6.75 7.45988 6.75 7.45559 6.75 7.45131C6.75 7.44703 6.75 7.44276 6.75 7.4385C6.75 7.43425 6.75 7.43 6.75 7.42577C6.75 7.42154 6.75 7.41732 6.75 7.41312C6.75 7.40891 6.75 7.40472 6.75 7.40054C6.75 7.39636 6.75 7.39219 6.75 7.38803C6.75 7.38388 6.75 7.37973 6.75 7.3756C6.75 7.37147 6.75 7.36735 6.75 7.36325C6.75 7.35914 6.75 7.35505 6.75 7.35097C6.75 7.34688 6.75 7.34281 6.75 7.33876C6.75 7.3347 6.75 7.33066 6.75 7.32662C6.75 7.32259 6.75 7.31857 6.75 7.31456C6.75 7.31056 6.75 7.30656 6.75 7.30258C6.75 7.29859 6.75 7.29462 6.75 7.29066C6.75 7.2867 6.75 7.28276 6.75 7.27882C6.75 7.27489 6.75 7.27096 6.75 7.26705C6.75 7.26314 6.75 7.25924 6.75 7.25536C6.75 7.25147 6.75 7.2476 6.75 7.24373C6.75 7.23987 6.75 7.23602 6.75 7.23218C6.75 7.22834 6.75 7.22452 6.75 7.2207C6.75 7.21689 6.75 7.21309 6.75 7.20929C6.75 7.2055 6.75 7.20173 6.75 7.19796C6.75 7.19419 6.75 7.19044 6.75 7.18669C6.75 7.18295 6.75 7.17922 6.75 7.1755C6.75 7.17178 6.75 7.16807 6.75 7.16437C6.75 7.16068 6.75 7.15699 6.75 7.15332C6.75 7.14964 6.75 7.14598 6.75 7.14233C6.75 7.13868 6.75 7.13505 6.75 7.13142C6.75 7.12779 6.75 7.12418 6.75 7.12058C6.75 7.11697 6.75 7.11338 6.75 7.1098C6.75 7.10622 6.75 7.10265 6.75 7.0991C6.75 7.09554 6.75 7.09199 6.75 7.08846C6.75 7.08493 6.75 7.0814 6.75 7.07789C6.75 7.07438 6.75 7.07088 6.75 7.06739C6.75 7.0639 6.75 7.06043 6.75 7.05696C6.75 7.0535 6.75 7.05004 6.75 7.0466C6.75 7.04316 6.75 7.03973 6.75 7.03631C6.75 7.03289 6.75 7.02948 6.75 7.02608C6.75 7.02268 6.75 7.0193 6.75 7.01592C6.75 7.01255 6.75 7.00918 6.75 7.00583C6.75 7.00248 6.75 6.99913 6.75 6.9958C6.75 6.99247 6.75 6.98915 6.75 6.98585C6.75 6.98254 6.75 6.97924 6.75 6.97595C6.75 6.97267 6.75 6.96939 6.75 6.96613C6.75 6.96287 6.75 6.95961 6.75 6.95637C6.75 6.95313 6.75 6.9499 6.75 6.94668C6.75 6.94346 6.75 6.94025 6.75 6.93705C6.75 6.93385 6.75 6.93067 6.75 6.92749C6.75 6.92431 6.75 6.92115 6.75 6.91799C6.75 6.91484 6.75 6.91169 6.75 6.90856C6.75 6.90543 6.75 6.90231 6.75 6.89919C6.75 6.89608 6.75 6.89298 6.75 6.88989C6.75 6.8868 6.75 6.88372 6.75 6.88065C6.75 6.87759 6.75 6.87453 6.75 6.87148C6.75 6.86843 6.75 6.8654 6.75 6.86237C6.75 6.85935 6.75 6.85633 6.75 6.85333C6.75 6.85032 6.75 6.84733 6.75 6.84434C6.75 6.84136 6.75 6.83839 6.75 6.83542C6.75 6.83246 6.75 6.82951 6.75 6.82657C6.75 6.82363 6.75 6.8207 6.75 6.81778C6.75 6.81486 6.75 6.81194 6.75 6.80905C6.75 6.80615 6.75 6.80326 6.75 6.80038C6.75 6.7975 6.75 6.79463 6.75 6.79177C6.75 6.78891 6.75 6.78606 6.75 6.78323C6.75 6.78039 6.75 6.77756 6.75 6.77474C6.75 6.77193 6.75 6.76912 6.75 6.76632C6.75 6.76353 6.75 6.76074 6.75 6.75796C6.75 6.75519 6.75 6.75242 6.75 6.74966C6.75 6.74691 6.75 6.74416 6.75 6.74143C6.75 6.73869 6.75 6.73596 6.75 6.73325C6.75 6.73053 6.75 6.72783 6.75 6.72513C6.75 6.72244 6.75 6.71975 6.75 6.71707C6.75 6.7144 6.75 6.71173 6.75 6.70908C6.75 6.70642 6.75 6.70378 6.75 6.70114C6.75 6.6985 6.75 6.69588 6.75 6.69326C6.75 6.69065 6.75 6.68804 6.75 6.68544C6.75 6.68285 6.75 6.68026 6.75 6.67768C6.75 6.67511 6.75 6.67254 6.75 6.66998C6.75 6.66743 6.75 6.66488 6.75 6.66234C6.75 6.6598 6.75 6.65728 6.75 6.65476C6.75 6.65224 6.75 6.64973 6.75 6.64723C6.75 6.64473 6.75 6.64224 6.75 6.63976C6.75 6.63728 6.75 6.63481 6.75 6.63235C6.75 6.62989 6.75 6.62744 6.75 6.625C6.75 6.62256 6.75 6.62013 6.75 6.6177C6.75 6.61528 6.75 6.61287 6.75 6.61047C6.75 6.60806 6.75 6.60567 6.75 6.60328C6.75 6.6009 6.75 6.59852 6.75 6.59616C6.75 6.59379 6.75 6.59144 6.75 6.58909C6.75 6.58674 6.75 6.5844 6.75 6.58208C6.75 6.57975 6.75 6.57743 6.75 6.57512C6.75 6.57281 6.75 6.57051 6.75 6.56822C6.75 6.56593 6.75 6.56364 6.75 6.56137C6.75 6.5591 6.75 6.55684 6.75 6.55458C6.75 6.55233 6.75 6.55008 6.75 6.54785C6.75 6.54561 6.75 6.54338 6.75 6.54116C6.75 6.53895 6.75 6.53674 6.75 6.53454C6.75 6.53234 6.75 6.53015 6.75 6.52797C6.75 6.52578 6.75 6.52361 6.75 6.52145C6.75 6.51928 6.75 6.51713 6.75 6.51498C6.75 6.51284 6.75 6.5107 6.75 6.50857C6.75 6.50645 6.75 6.50433 6.75 6.50222C6.75 6.50011 6.75 6.498 6.75 6.49591C6.75 6.49382 6.75 6.49174 6.75 6.48966C6.75 6.48759 6.75 6.48552 6.75 6.48346C6.75 6.48141 6.75 6.47936 6.75 6.47732C6.75 6.47528 6.75 6.47325 6.75 6.47122C6.75 6.4692 6.75 6.46719 6.75 6.46518C6.75 6.46318 6.75 6.46118 6.75 6.45919C6.75 6.45721 6.75 6.45523 6.75 6.45326C6.75 6.45129 6.75 6.44932 6.75 6.44737C6.75 6.44542 6.75 6.44347 6.75 6.44153C6.75 6.4396 6.75 6.43767 6.75 6.43575C6.75 6.43383 6.75 6.43192 6.75 6.43002C6.75 6.42811 6.75 6.42622 6.75 6.42433C6.75 6.42245 6.75 6.42057 6.75 6.4187C6.75 6.41683 6.75 6.41497 6.75 6.41312C6.75 6.41127 6.75 6.40942 6.75 6.40759C6.75 6.40575 6.75 6.40392 6.75 6.4021C6.75 6.40028 6.75 6.39847 6.75 6.39667C6.75 6.39487 6.75 6.39307 6.75 6.39128C6.75 6.3895 6.75 6.38772 6.75 6.38595C6.75 6.38418 6.75 6.38242 6.75 6.38066C6.75 6.37891 6.75 6.37716 6.75 6.37542C6.75 6.37369 6.75 6.37196 6.75 6.37023C6.75 6.36851 6.75 6.3668 6.75 6.36509C6.75 6.36339 6.75 6.36169 6.75 6.36C6.75 6.35831 6.75 6.35662 6.75 6.35495C6.75 6.35328 6.75 6.35161 6.75 6.34995C6.75 6.34829 6.75 6.34664 6.75 6.345C6.75 6.34336 6.75 6.34172 6.75 6.34009C6.75 6.33847 6.75 6.33685 6.75 6.33524C6.75 6.33362 6.75 6.33202 6.75 6.33042C6.75 6.32883 6.75 6.32724 6.75 6.32566C6.75 6.32408 6.75 6.3225 6.75 6.32094C6.75 6.31937 6.75 6.31781 6.75 6.31626C6.75 6.31471 6.75 6.31317 6.75 6.31164C6.75 6.3101 6.75 6.30857 6.75 6.30705C6.75 6.30553 6.75 6.30402 6.75 6.30252C6.75 6.30101 6.75 6.29951 6.75 6.29802C6.75 6.29653 6.75 6.29505 6.75 6.29358C6.75 6.2921 6.75 6.29063 6.75 6.28917C6.75 6.28771 6.75 6.28626 6.75 6.28481C6.75 6.28337 6.75 6.28193 6.75 6.2805C6.75 6.27907 6.75 6.27764 6.75 6.27623C6.75 6.27481 6.75 6.2734 6.75 6.272C6.75 6.2706 6.75 6.2692 6.75 6.26781C6.75 6.26643 6.75 6.26505 6.75 6.26367C6.75 6.2623 6.75 6.26093 6.75 6.25957C6.75 6.25821 6.75 6.25686 6.75 6.25552C6.75 6.25417 6.75 6.25284 6.75 6.2515C6.75 6.25017 6.75 6.24885 6.75 6.24753C6.75 6.24622 6.75 6.24491 6.75 6.2436C6.75 6.2423 6.75 6.24101 6.75 6.23972C6.75 6.23843 6.75 6.23715 6.75 6.23587C6.75 6.2346 6.75 6.23333 6.75 6.23207C6.75 6.23081 6.75 6.22955 6.75 6.2283C6.75 6.22706 6.75 6.22582 6.75 6.22458C6.75 6.22335 6.75 6.22212 6.75 6.2209C6.75 6.21968 6.75 6.21847 6.75 6.21726C6.75 6.21605 6.75 6.21485 6.75 6.21366C6.75 6.21246 6.75 6.21128 6.75 6.2101C6.75 6.20892 6.75 6.20774 6.75 6.20658C6.75 6.20541 6.75 6.20425 6.75 6.20309C6.75 6.20194 6.75 6.20079 6.75 6.19965C6.75 6.19851 6.75 6.19738 6.75 6.19625C6.75 6.19512 6.75 6.194 6.75 6.19288C6.75 6.19177 6.75 6.19066 6.75 6.18956C6.75 6.18846 6.75 6.18736 6.75 6.18627C6.75 6.18518 6.75 6.1841 6.75 6.18302C6.75 6.18195 6.75 6.18088 6.75 6.17981C6.75 6.17875 6.75 6.17769 6.75 6.17664C6.75 6.17559 6.75 6.17454 6.75 6.1735C6.75 6.17246 6.75 6.17143 6.75 6.17041C6.75 6.16938 6.75 6.16836 6.75 6.16734C6.75 6.16633 6.75 6.16532 6.75 6.16432C6.75 6.16332 6.75 6.16232 6.75 6.16133C6.75 6.16034 6.75 6.15936 6.75 6.15838C6.75 6.1574 6.75 6.15643 6.75 6.15547C6.75 6.1545 6.75 6.15354 6.75 6.15259C6.75 6.15163 6.75 6.15069 6.75 6.14974C6.75 6.1488 6.75 6.14787 6.75 6.14694C6.75 6.14601 6.75 6.14508 6.75 6.14416C6.75 6.14325 6.75 6.14233 6.75 6.14143C6.75 6.14052 6.75 6.13962 6.75 6.13873C6.75 6.13783 6.75 6.13694 6.75 6.13606C6.75 6.13517 6.75 6.1343 6.75 6.13342C6.75 6.13255 6.75 6.13169 6.75 6.13083C6.75 6.12996 6.75 6.12911 6.75 6.12826C6.75 6.12741 6.75 6.12657 6.75 6.12573C6.75 6.12489 6.75 6.12406 6.75 6.12323C6.75 6.1224 6.75 6.12158 6.75 6.12077C6.75 6.11995 6.75 6.11914 6.75 6.11833C6.75 6.11753 6.75 6.11673 6.75 6.11594C6.75 6.11514 6.75 6.11435 6.75 6.11357C6.75 6.11279 6.75 6.11201 6.75 6.11124C6.75 6.11046 6.75 6.1097 6.75 6.10894C6.75 6.10817 6.75 6.10742 6.75 6.10667C6.75 6.10591 6.75 6.10517 6.75 6.10443C6.75 6.10369 6.75 6.10295 6.75 6.10222C6.75 6.10149 6.75 6.10077 6.75 6.10005C6.75 6.09933 6.75 6.09861 6.75 6.0979C6.75 6.09719 6.75 6.09649 6.75 6.09579C6.75 6.09509 6.75 6.0944 6.75 6.09371C6.75 6.09302 6.75 6.09234 6.75 6.09166C6.75 6.09098 6.75 6.0903 6.75 6.08963C6.75 6.08897 6.75 6.0883 6.75 6.08764C6.75 6.08698 6.75 6.08633 6.75 6.08568C6.75 6.08503 6.75 6.08439 6.75 6.08375C6.75 6.08311 6.75 6.08247 6.75 6.08184C6.75 6.08121 6.75 6.08059 6.75 6.07997C6.75 6.07935 6.75 6.07874 6.75 6.07812C6.75 6.07751 6.75 6.07691 6.75 6.07631C6.75 6.07571 6.75 6.07511 6.75 6.07452C6.75 6.07393 6.75 6.07334 6.75 6.07276C6.75 6.07218 6.75 6.0716 6.75 6.07103C6.75 6.07045 6.75 6.06989 6.75 6.06932C6.75 6.06876 6.75 6.0682 6.75 6.06765C6.75 6.06709 6.75 6.06654 6.75 6.066C6.75 6.06545 6.75 6.06491 6.75 6.06437C6.75 6.06384 6.75 6.0633 6.75 6.06278C6.75 6.06225 6.75 6.06173 6.75 6.06121C6.75 6.06069 6.75 6.06017 6.75 6.05966C6.75 6.05915 6.75 6.05865 6.75 6.05815C6.75 6.05765 6.75 6.05715 6.75 6.05666C6.75 6.05616 6.75 6.05568 6.75 6.05519C6.75 6.05471 6.75 6.05423 6.75 6.05375C6.75 6.05328 6.75 6.0528 6.75 6.05234C6.75 6.05187 6.75 6.05141 6.75 6.05095C6.75 6.05049 6.75 6.05003 6.75 6.04958C6.75 6.04913 6.75 6.04869 6.75 6.04824C6.75 6.0478 6.75 6.04736 6.75 6.04693C6.75 6.04649 6.75 6.04606 6.75 6.04564C6.75 6.04521 6.75 6.04479 6.75 6.04437C6.75 6.04395 6.75 6.04354 6.75 6.04312C6.75 6.04271 6.75 6.04231 6.75 6.0419C6.75 6.0415 6.75 6.0411 6.75 6.04071C6.75 6.04031 6.75 6.03992 6.75 6.03953C6.75 6.03915 6.75 6.03876 6.75 6.03838C6.75 6.038 6.75 6.03763 6.75 6.03725C6.75 6.03688 6.75 6.03651 6.75 6.03615C6.75 6.03578 6.75 6.03542 6.75 6.03506C6.75 6.0347 6.75 6.03435 6.75 6.034C6.75 6.03365 6.75 6.0333 6.75 6.03296C6.75 6.03262 6.75 6.03228 6.75 6.03194C6.75 6.0316 6.75 6.03127 6.75 6.03094C6.75 6.03061 6.75 6.03029 6.75 6.02996C6.75 6.02964 6.75 6.02932 6.75 6.02901C6.75 6.02869 6.75 6.02838 6.75 6.02807C6.75 6.02776 6.75 6.02746 6.75 6.02716C6.75 6.02686 6.75 6.02656 6.75 6.02626C6.75 6.02597 6.75 6.02568 6.75 6.02539C6.75 6.0251 6.75 6.02481 6.75 6.02453C6.75 6.02425 6.75 6.02397 6.75 6.02369C6.75 6.02342 6.75 6.02315 6.75 6.02288C6.75 6.02261 6.75 6.02234 6.75 6.02208C6.75 6.02182 6.75 6.02156 6.75 6.0213C6.75 6.02104 6.75 6.02079 6.75 6.02054C6.75 6.02029 6.75 6.02004 6.75 6.0198C6.75 6.01955 6.75 6.01931 6.75 6.01907C6.75 6.01884 6.75 6.0186 6.75 6.01837C6.75 6.01813 6.75 6.01791 6.75 6.01768C6.75 6.01745 6.75 6.01723 6.75 6.01701C6.75 6.01679 6.75 6.01657 6.75 6.01635C6.75 6.01614 6.75 6.01593 6.75 6.01572C6.75 6.01551 6.75 6.0153 6.75 6.0151C6.75 6.01489 6.75 6.01469 6.75 6.01449C6.75 6.01429 6.75 6.0141 6.75 6.0139C6.75 6.01371 6.75 6.01352 6.75 6.01333C6.75 6.01315 6.75 6.01296 6.75 6.01278C6.75 6.0126 6.75 6.01242 6.75 6.01224C6.75 6.01206 6.75 6.01189 6.75 6.01171C6.75 6.01154 6.75 6.01137 6.75 6.0112C6.75 6.01104 6.75 6.01087 6.75 6.01071C6.75 6.01055 6.75 6.01039 6.75 6.01023C6.75 6.01007 6.75 6.00992 6.75 6.00977C6.75 6.00961 6.75 6.00946 6.75 6.00932C6.75 6.00917 6.75 6.00902 6.75 6.00888C6.75 6.00874 6.75 6.00859 6.75 6.00846C6.75 6.00832 6.75 6.00818 6.75 6.00805C6.75 6.00791 6.75 6.00778 6.75 6.00765C6.75 6.00752 6.75 6.00739 6.75 6.00727C6.75 6.00714 6.75 6.00702 6.75 6.0069C6.75 6.00678 6.75 6.00666 6.75 6.00654C6.75 6.00643 6.75 6.00631 6.75 6.0062C6.75 6.00609 6.75 6.00597 6.75 6.00587C6.75 6.00576 6.75 6.00565 6.75 6.00555C6.75 6.00544 6.75 6.00534 6.75 6.00524C6.75 6.00514 6.75 6.00504 6.75 6.00494C6.75 6.00484 6.75 6.00475 6.75 6.00466C6.75 6.00456 6.75 6.00447 6.75 6.00438C6.75 6.00429 6.75 6.00421 6.75 6.00412C6.75 6.00403 6.75 6.00395 6.75 6.00387C6.75 6.00379 6.75 6.00371 6.75 6.00363C6.75 6.00355 6.75 6.00347 6.75 6.00339C6.75 6.00332 6.75 6.00325 6.75 6.00317C6.75 6.0031 6.75 6.00303 6.75 6.00296C6.75 6.00289 6.75 6.00283 6.75 6.00276C6.75 6.00269 6.75 6.00263 6.75 6.00257C6.75 6.0025 6.75 6.00244 6.75 6.00238C6.75 6.00232 6.75 6.00227 6.75 6.00221C6.75 6.00215 6.75 6.0021 6.75 6.00204C6.75 6.00199 6.75 6.00194 6.75 6.00189C6.75 6.00184 6.75 6.00179 6.75 6.00174C6.75 6.00169 6.75 6.00164 6.75 6.0016C6.75 6.00155 6.75 6.00151 6.75 6.00146C6.75 6.00142 6.75 6.00138 6.75 6.00134C6.75 6.0013 6.75 6.00126 6.75 6.00122C6.75 6.00118 6.75 6.00115 6.75 6.00111C6.75 6.00107 6.75 6.00104 6.75 6.00101C6.75 6.00097 6.75 6.00094 6.75 6.00091C6.75 6.00088 6.75 6.00085 6.75 6.00082C6.75 6.00079 6.75 6.00076 6.75 6.00073C6.75 6.00071 6.75 6.00068 6.75 6.00065C6.75 6.00063 6.75 6.00061 6.75 6.00058C6.75 6.00056 6.75 6.00054 6.75 6.00051C6.75 6.00049 6.75 6.00047 6.75 6.00045C6.75 6.00043 6.75 6.00041 6.75 6.0004C6.75 6.00038 6.75 6.00036 6.75 6.00035C6.75 6.00033 6.75 6.00031 6.75 6.0003C6.75 6.00028 6.75 6.00027 6.75 6.00026C6.75 6.00024 6.75 6.00023 6.75 6.00022C6.75 6.00021 6.75 6.00019 6.75 6.00018C6.75 6.00017 6.75 6.00016 6.75 6.00015C6.75 6.00014 6.75 6.00013 6.75 6.00013C6.75 6.00012 6.75 6.00011 6.75 6.0001C6.75 6.00009 6.75 6.00009 6.75 6.00008C6.75 6.00008 6.75 6.00007 6.75 6.00006C6.75 6.00006 6.75 6.00005 6.75 6.00005C6.75 6.00005 6.75 6.00004 6.75 6.00004C6.75 6.00003 6.75 6.00003 6.75 6.00003C6.75 6.00002 6.75 6.00002 6.75 6.00002C6.75 6.00002 6.75 6.00001 6.75 6.00001C6.75 6.00001 6.75 6.00001 6.75 6.00001C6.75 6.00001 6.75 6.00001 6.75 6C6.75 6 6.75 6 6.75 6C6.75 6 6.75 6 6.75 6C6.75 6 6.75 6 6.75 6C6.75 6 6.75 6 6.75 6H6ZM6.75 6V1H5.25V6H6.75Z" fill="#F39800"/>
</g>
</svg>
